<!-- Created with Inkscape (http://www.inkscape.org/) -->
<svg id="plc-protut" width="187.24mm" height="178.27mm" version="1.1" viewBox="0 0 187.24 178.27" xmlns="http://www.w3.org/2000/svg">
 <defs>
  <filter id="filter8314" x="-.132" y="-.132" width="1.264" height="1.264" style="color-interpolation-filters:sRGB">
   <feGaussianBlur stdDeviation="1.2408218"/>
  </filter>
 </defs>
 <path d="m163.58 175.63v-29.633" style="fill:#000080;stroke-width:1.5875;stroke:#003e00"/>
 <path d="m145.41 175.63v-29.633" style="fill:#000080;stroke-width:1.5875;stroke:#003e00"/>
 <path d="m122.78 175.63v-29.633" style="fill:#000080;stroke-width:1.5875;stroke:#003e00"/>
 <path d="m105.09 175.63v-29.633" style="fill:#000080;stroke-width:1.5875;stroke:#003e00"/>
 <path d="m81.972 175.63v-29.633" style="fill:#000080;stroke-width:1.5875;stroke:#003e00"/>
 <path d="m64.442 175.63v-29.633" style="fill:#000080;stroke-width:1.5875;stroke:#003e00"/>
 <path d="m41.174 175.63v-29.633" style="fill:#000080;stroke-width:1.5875;stroke:#003e00"/>
 <path d="m23.482 175.63v-29.633" style="fill:#000080;stroke-width:1.5875;stroke:#003e00"/>
 <path d="m23.816 24.761v-22.761" style="fill:none;stroke-width:1.5875;stroke:#a00"/>
 <path d="m37.19 24.761v-22.761" style="fill:none;stroke-width:1.5875;stroke:#000"/>
 <path d="m65.892 24.761v-22.761" style="fill:#000080;stroke-width:1.5875;stroke:#000080"/>
 <path d="m79.672 24.761v-22.761" style="fill:#000080;stroke-width:1.5875;stroke:#000080"/>
 <path d="m94.072 24.761v-22.761" style="fill:#000080;stroke-width:1.5875;stroke:#000080"/>
 <path d="m108.16 24.761v-22.761" style="fill:#000080;stroke-width:1.5875;stroke:#000080"/>
 <path d="m121.31 24.761v-22.761" style="fill:#000080;stroke-width:1.5875;stroke:#000080"/>
 <path d="m136.03 24.761v-22.761" style="fill:#000080;stroke-width:1.5875;stroke:#000080"/>
 <path d="m149.96 24.761v-22.761" style="fill:#000080;stroke-width:1.5875;stroke:#000080"/>
 <path d="m163.58 24.761v-22.761" style="fill:#000080;stroke-width:1.5875;stroke:#000080"/>
 <rect x="2.2325" y="122.68" width="182.77" height="23.314" rx="0" ry="0" style="fill:#f8f6ed;paint-order:normal;stroke-linecap:round;stroke-width:.465;stroke:#000"/>
 <g transform="translate(-50.268 -105.98)">
  <g transform="translate(-40.747)" style="stroke-width:.52917">
   <path d="m118.15 240.32h3.6164l3.7919-2.1167" style="fill:none;stroke-width:.52917;stroke:#000"/>
   <path d="m125.56 240.32h3.6164" style="fill:none;stroke-width:.52917;stroke:#000"/>
  </g>
  <g transform="translate(-.48954 -.058917)" style="fill:#f2f2f2">
   <g transform="matrix(.66987 0 0 .66987 24.013 157.51)" style="fill:#f2f2f2">
    <path d="m80.698 123.7a5.2917 5.2917 0 0 1-5.2917 5.2917 5.2917 5.2917 0 0 1-5.2917-5.2917 5.2917 5.2917 0 0 1 5.2917-5.2917 5.2917 5.2917 0 0 1 5.2917 5.2917z" style="fill:#f2f2f2;paint-order:normal;stroke-linecap:round;stroke-width:.75045;stroke:#000"/>
    <path d="m70.824 121.05 9.1654 5.2917m-1.9369-7.2285-5.2917 9.1654" style="fill:#f2f2f2;stroke-width:.26458px;stroke:#000"/>
   </g>
   <g transform="matrix(.66987 0 0 .66987 42.004 157.51)" style="fill:#f2f2f2">
    <path d="m80.698 123.7a5.2917 5.2917 0 0 1-5.2917 5.2917 5.2917 5.2917 0 0 1-5.2917-5.2917 5.2917 5.2917 0 0 1 5.2917-5.2917 5.2917 5.2917 0 0 1 5.2917 5.2917z" style="fill:#f2f2f2;paint-order:normal;stroke-linecap:round;stroke-width:.75045;stroke:#000"/>
    <path d="m70.824 121.05 9.1654 5.2917m-1.9369-7.2285-5.2917 9.1654" style="fill:#f2f2f2;stroke-width:.26458px;stroke:#000"/>
   </g>
  </g>
 </g>
 <g transform="translate(-50.268 -105.98)">
  <g style="stroke-width:.52917">
   <path d="m118.15 240.32h3.6164l3.7919-2.1167" style="fill:none;stroke-width:.52917;stroke:#000"/>
   <path d="m125.56 240.32h3.6164" style="fill:none;stroke-width:.52917;stroke:#000"/>
  </g>
  <g transform="translate(40.08 -.058917)" style="fill:#f2f2f2">
   <g transform="matrix(.66987 0 0 .66987 24.013 157.51)" style="fill:#f2f2f2">
    <path d="m80.698 123.7a5.2917 5.2917 0 0 1-5.2917 5.2917 5.2917 5.2917 0 0 1-5.2917-5.2917 5.2917 5.2917 0 0 1 5.2917-5.2917 5.2917 5.2917 0 0 1 5.2917 5.2917z" style="fill:#f2f2f2;paint-order:normal;stroke-linecap:round;stroke-width:.75045;stroke:#000"/>
    <path d="m70.824 121.05 9.1654 5.2917m-1.9369-7.2285-5.2917 9.1654" style="fill:#f2f2f2;stroke-width:.26458px;stroke:#000"/>
   </g>
   <g transform="matrix(.66987 0 0 .66987 42.004 157.51)" style="fill:#f2f2f2">
    <path d="m80.698 123.7a5.2917 5.2917 0 0 1-5.2917 5.2917 5.2917 5.2917 0 0 1-5.2917-5.2917 5.2917 5.2917 0 0 1 5.2917-5.2917 5.2917 5.2917 0 0 1 5.2917 5.2917z" style="fill:#f2f2f2;paint-order:normal;stroke-linecap:round;stroke-width:.75045;stroke:#000"/>
    <path d="m70.824 121.05 9.1654 5.2917m-1.9369-7.2285-5.2917 9.1654" style="fill:#f2f2f2;stroke-width:.26458px;stroke:#000"/>
   </g>
  </g>
 </g>
 <g transform="translate(-50.268 -105.98)">
  <g transform="translate(40.217)" style="stroke-width:.52917">
   <path d="m118.15 240.32h3.6164l3.7919-2.1167" style="fill:none;stroke-width:.52917;stroke:#000"/>
   <path d="m125.56 240.32h3.6164" style="fill:none;stroke-width:.52917;stroke:#000"/>
  </g>
  <g transform="translate(80.649 -.058917)" style="fill:#f2f2f2">
   <g transform="matrix(.66987 0 0 .66987 24.013 157.51)" style="fill:#f2f2f2">
    <path d="m80.698 123.7a5.2917 5.2917 0 0 1-5.2917 5.2917 5.2917 5.2917 0 0 1-5.2917-5.2917 5.2917 5.2917 0 0 1 5.2917-5.2917 5.2917 5.2917 0 0 1 5.2917 5.2917z" style="fill:#f2f2f2;paint-order:normal;stroke-linecap:round;stroke-width:.75045;stroke:#000"/>
    <path d="m70.824 121.05 9.1654 5.2917m-1.9369-7.2285-5.2917 9.1654" style="fill:#f2f2f2;stroke-width:.26458px;stroke:#000"/>
   </g>
   <g transform="matrix(.66987 0 0 .66987 42.004 157.51)" style="fill:#f2f2f2">
    <path d="m80.698 123.7a5.2917 5.2917 0 0 1-5.2917 5.2917 5.2917 5.2917 0 0 1-5.2917-5.2917 5.2917 5.2917 0 0 1 5.2917-5.2917 5.2917 5.2917 0 0 1 5.2917 5.2917z" style="fill:#f2f2f2;paint-order:normal;stroke-linecap:round;stroke-width:.75045;stroke:#000"/>
    <path d="m70.824 121.05 9.1654 5.2917m-1.9369-7.2285-5.2917 9.1654" style="fill:#f2f2f2;stroke-width:.26458px;stroke:#000"/>
   </g>
  </g>
 </g>
 <g transform="translate(-50.268 -105.98)">
  <g transform="translate(80.964)" style="stroke-width:.52917">
   <path d="m118.15 240.32h3.6164l3.7919-2.1167" style="fill:none;stroke-width:.52917;stroke:#000"/>
   <path d="m125.56 240.32h3.6164" style="fill:none;stroke-width:.52917;stroke:#000"/>
  </g>
  <g transform="matrix(.66987 0 0 .66987 145.23 157.46)" style="fill:#f2f2f2">
   <path d="m80.698 123.7a5.2917 5.2917 0 0 1-5.2917 5.2917 5.2917 5.2917 0 0 1-5.2917-5.2917 5.2917 5.2917 0 0 1 5.2917-5.2917 5.2917 5.2917 0 0 1 5.2917 5.2917z" style="fill:#f2f2f2;paint-order:normal;stroke-linecap:round;stroke-width:.75045;stroke:#000"/>
   <path d="m70.824 121.05 9.1654 5.2917m-1.9369-7.2285-5.2917 9.1654" style="fill:#f2f2f2;stroke-width:.26458px;stroke:#000"/>
  </g>
  <g transform="matrix(.66987 0 0 .66987 163.22 157.46)" style="fill:#f2f2f2">
   <path d="m80.698 123.7a5.2917 5.2917 0 0 1-5.2917 5.2917 5.2917 5.2917 0 0 1-5.2917-5.2917 5.2917 5.2917 0 0 1 5.2917-5.2917 5.2917 5.2917 0 0 1 5.2917 5.2917z" style="fill:#f2f2f2;paint-order:normal;stroke-linecap:round;stroke-width:.75045;stroke:#000"/>
   <path d="m70.824 121.05 9.1654 5.2917m-1.9369-7.2285-5.2917 9.1654" style="fill:#f2f2f2;stroke-width:.26458px;stroke:#000"/>
  </g>
 </g>
 <g transform="translate(-.9995 -7.0756)" style="fill:#01023a;font-feature-settings:normal;font-variant-caps:normal;font-variant-ligatures:normal;font-variant-numeric:normal;stroke-width:.26458" aria-label="Q0">
  <path d="m33.663 147.83q0 0.5953-0.2005 0.9467-0.19844 0.3514-0.58084 0.45682 0.07235 0.2005 0.20257 0.29145 0.13022 0.093 0.34726 0.093 0.09302 0 0.25425-0.0269v0.41754q-0.26045 0.0579-0.50022 0.0579-0.339 0-0.56017-0.19223-0.22117-0.19017-0.3576-0.62631-0.41341-0.0868-0.63045-0.44235-0.21704-0.35553-0.21704-0.97564 0-0.71313 0.28939-1.0707 0.29145-0.3576 0.83302-0.3576t0.83095 0.3576 0.28939 1.0707zm-0.61805 0q0-0.94878-0.50229-0.94878-0.50436 0-0.50436 0.94878 0 0.47542 0.12609 0.72139 0.12816 0.24391 0.37827 0.24391t0.3762-0.24391q0.12609-0.24597 0.12609-0.72139z" style="fill:#01023a;stroke-width:.26458"/>
  <path d="m36.106 147.83q0 0.70073-0.26458 1.0687-0.26458 0.36794-0.76894 0.36794-0.50642 0-0.76481-0.36587-0.25631-0.36793-0.25631-1.0707 0-0.72759 0.25011-1.0811 0.25218-0.35553 0.78754-0.35553 0.51676 0 0.76687 0.35967 0.25011 0.35966 0.25011 1.0769zm-0.5829 0q0-0.36379-0.04341-0.57463-0.04341-0.21291-0.13436-0.31006-0.09095-0.0971-0.26045-0.0971-0.17777 0-0.27285 0.0971t-0.13849 0.31006q-0.04134 0.21084-0.04134 0.57463 0 0.35967 0.04341 0.57257 0.04547 0.21291 0.13849 0.31006 0.09302 0.0971 0.26252 0.0971 0.23978 0 0.34313-0.22531 0.10335-0.2253 0.10335-0.75447zm-0.66766 0.24805v-0.51469h0.44441v0.51469z" style="fill:#01023a;stroke-width:.26458"/>
 </g>
 <g transform="translate(-.9995 -7.0756)" style="fill:#01023a;font-feature-settings:normal;font-variant-caps:normal;font-variant-ligatures:normal;font-variant-numeric:normal;stroke-width:.26458" aria-label="Q1">
  <path d="m74.201 147.83q0 0.5953-0.2005 0.9467-0.19844 0.3514-0.58084 0.45682 0.07235 0.2005 0.20257 0.29145 0.13022 0.093 0.34726 0.093 0.09302 0 0.25425-0.0269v0.41754q-0.26045 0.0579-0.50022 0.0579-0.33899 0-0.56017-0.19223-0.22117-0.19017-0.3576-0.62631-0.41341-0.0868-0.63045-0.44235-0.21704-0.35553-0.21704-0.97564 0-0.71313 0.28939-1.0707 0.29145-0.3576 0.83302-0.3576 0.54156 0 0.83095 0.3576t0.28939 1.0707zm-0.61804 0q0-0.94878-0.50229-0.94878-0.50436 0-0.50436 0.94878 0 0.47542 0.12609 0.72139 0.12816 0.24391 0.37827 0.24391t0.3762-0.24391q0.12609-0.24597 0.12609-0.72139z" style="fill:#01023a;stroke-width:.26458"/>
  <path d="m74.655 149.23v-0.43201h0.80408v-1.8417q-0.08062 0.1695-0.32246 0.28525-0.23978 0.11576-0.50436 0.11576v-0.44235q0.28732 0 0.51469-0.12609t0.34313-0.34726h0.54983v2.3564h0.66765v0.43201z" style="fill:#01023a;stroke-width:.26458"/>
 </g>
 <g transform="translate(-.9995 -7.0756)" style="fill:#01023a;font-feature-settings:normal;font-variant-caps:normal;font-variant-ligatures:normal;font-variant-numeric:normal;stroke-width:.26458" aria-label="Q2">
  <path d="m114.8 147.83q0 0.5953-0.2005 0.9467-0.19844 0.3514-0.58084 0.45682 0.0723 0.2005 0.20257 0.29145 0.13022 0.093 0.34726 0.093 0.093 0 0.25425-0.0269v0.41754q-0.26045 0.0579-0.50023 0.0579-0.33899 0-0.56016-0.19223-0.22118-0.19017-0.3576-0.62631-0.41341-0.0868-0.63045-0.44235-0.21704-0.35553-0.21704-0.97564 0-0.71313 0.28939-1.0707 0.29145-0.3576 0.83301-0.3576 0.54157 0 0.83095 0.3576 0.28939 0.3576 0.28939 1.0707zm-0.61805 0q0-0.94878-0.50229-0.94878-0.50435 0-0.50435 0.94878 0 0.47542 0.12608 0.72139 0.12816 0.24391 0.37827 0.24391 0.25012 0 0.3762-0.24391 0.12609-0.24597 0.12609-0.72139z" style="fill:#01023a;stroke-width:.26458"/>
  <path d="m115.21 149.23v-0.40308q0.10335-0.22737 0.29352-0.45474 0.19223-0.22945 0.5581-0.5271 0.28525-0.23358 0.37-0.32246 0.0847-0.0889 0.13229-0.17156 0.0496-0.0847 0.0496-0.17157 0-0.14882-0.0971-0.23357-0.0972-0.0848-0.28526-0.0848-0.18603 0-0.28525 0.10128-0.0971 0.0992-0.12609 0.29972l-0.58497-0.0331q0.0496-0.40514 0.30179-0.61804 0.25424-0.21291 0.69039-0.21291 0.45061 0 0.71313 0.20671 0.26251 0.20463 0.26251 0.54983 0 0.22531-0.14262 0.44028-0.14056 0.2129-0.42375 0.43408-0.401 0.31005-0.53949 0.44648-0.1385 0.13642-0.20051 0.27698h1.3518v0.47749z" style="fill:#01023a;stroke-width:.26458"/>
 </g>
 <g transform="translate(-.9995 -7.0756)" style="fill:#01023a;font-feature-settings:normal;font-variant-caps:normal;font-variant-ligatures:normal;font-variant-numeric:normal;stroke-width:.26458" aria-label="Q3">
  <path d="m155.36 147.83q0 0.5953-0.2005 0.9467-0.19844 0.3514-0.58084 0.45682 0.0723 0.2005 0.20257 0.29145 0.13022 0.093 0.34726 0.093 0.093 0 0.25425-0.0269v0.41754q-0.26045 0.0579-0.50023 0.0579-0.33899 0-0.56017-0.19223-0.22117-0.19017-0.35759-0.62631-0.41341-0.0868-0.63045-0.44235-0.21704-0.35553-0.21704-0.97564 0-0.71313 0.28939-1.0707 0.29145-0.3576 0.83301-0.3576 0.54157 0 0.83095 0.3576 0.28939 0.3576 0.28939 1.0707zm-0.61805 0q0-0.94878-0.50229-0.94878-0.50435 0-0.50435 0.94878 0 0.47542 0.12608 0.72139 0.12816 0.24391 0.37827 0.24391 0.25012 0 0.3762-0.24391 0.12609-0.24597 0.12609-0.72139z" style="fill:#01023a;stroke-width:.26458"/>
  <path d="m157.83 148.45q0 0.39067-0.28112 0.60771-0.27905 0.21704-0.77307 0.21704-0.47542 0-0.75447-0.2067-0.27698-0.20878-0.32453-0.60151l0.59118-0.0517q0.0517 0.3886 0.48575 0.3886 0.21704 0 0.339-0.10335 0.12195-0.10542 0.12195-0.28525t-0.15089-0.27492q-0.14883-0.0951-0.42788-0.0951h-0.20257v-0.46922h0.19017q0.25218 0 0.38654-0.0951 0.13642-0.0971 0.13642-0.26872 0-0.15503-0.11369-0.25424-0.11162-0.0992-0.29972-0.0992-0.17776 0-0.29352 0.0848-0.11575 0.0827-0.13229 0.26458l-0.58084-0.0413q0.0455-0.37 0.31213-0.57051 0.26871-0.2005 0.70486-0.2005 0.30592 0 0.52916 0.093 0.22531 0.093 0.34313 0.26251 0.11989 0.16743 0.11989 0.38861 0 0.25424-0.16123 0.42374t-0.46095 0.22737v8e-3q0.32452 0.0372 0.51056 0.21291 0.18603 0.17363 0.18603 0.43821z" style="fill:#01023a;stroke-width:.26458"/>
 </g>
 <rect x="2.2325" y="24.761" width="182.77" height="23.314" rx="0" ry="0" style="fill:#f8f6ed;paint-order:normal;stroke-linecap:round;stroke-width:.465;stroke:#000"/>
 <g transform="translate(-50.268 -105.98)">
  <g transform="matrix(.66987 0 0 .66987 65.831 60.596)" style="fill:#f2f2f2">
   <path d="m80.698 123.7a5.2917 5.2917 0 0 1-5.2917 5.2917 5.2917 5.2917 0 0 1-5.2917-5.2917 5.2917 5.2917 0 0 1 5.2917-5.2917 5.2917 5.2917 0 0 1 5.2917 5.2917z" style="fill:#f2f2f2;paint-order:normal;stroke-linecap:round;stroke-width:.75045;stroke:#000"/>
   <path d="m70.824 121.05 9.1654 5.2917m-1.9369-7.2285-5.2917 9.1654" style="fill:#f2f2f2;stroke-width:.26458px;stroke:#000"/>
  </g>
  <g transform="matrix(.66987 0 0 .66987 79.744 60.596)" style="fill:#f2f2f2">
   <path d="m80.698 123.7a5.2917 5.2917 0 0 1-5.2917 5.2917 5.2917 5.2917 0 0 1-5.2917-5.2917 5.2917 5.2917 0 0 1 5.2917-5.2917 5.2917 5.2917 0 0 1 5.2917 5.2917z" style="fill:#f2f2f2;paint-order:normal;stroke-linecap:round;stroke-width:.75045;stroke:#000"/>
   <path d="m70.824 121.05 9.1654 5.2917m-1.9369-7.2285-5.2917 9.1654" style="fill:#f2f2f2;stroke-width:.26458px;stroke:#000"/>
  </g>
  <g transform="matrix(.66987 0 0 .66987 93.657 60.596)" style="fill:#f2f2f2">
   <path d="m80.698 123.7a5.2917 5.2917 0 0 1-5.2917 5.2917 5.2917 5.2917 0 0 1-5.2917-5.2917 5.2917 5.2917 0 0 1 5.2917-5.2917 5.2917 5.2917 0 0 1 5.2917 5.2917z" style="fill:#f2f2f2;paint-order:normal;stroke-linecap:round;stroke-width:.75045;stroke:#000"/>
   <path d="m70.824 121.05 9.1654 5.2917m-1.9369-7.2285-5.2917 9.1654" style="fill:#f2f2f2;stroke-width:.26458px;stroke:#000"/>
  </g>
  <g transform="matrix(.66987 0 0 .66987 107.57 60.596)" style="fill:#f2f2f2">
   <path d="m80.698 123.7a5.2917 5.2917 0 0 1-5.2917 5.2917 5.2917 5.2917 0 0 1-5.2917-5.2917 5.2917 5.2917 0 0 1 5.2917-5.2917 5.2917 5.2917 0 0 1 5.2917 5.2917z" style="fill:#f2f2f2;paint-order:normal;stroke-linecap:round;stroke-width:.75045;stroke:#000"/>
   <path d="m70.824 121.05 9.1654 5.2917m-1.9369-7.2285-5.2917 9.1654" style="fill:#f2f2f2;stroke-width:.26458px;stroke:#000"/>
  </g>
  <g transform="matrix(.66987 0 0 .66987 121.48 60.596)" style="fill:#f2f2f2">
   <path d="m80.698 123.7a5.2917 5.2917 0 0 1-5.2917 5.2917 5.2917 5.2917 0 0 1-5.2917-5.2917 5.2917 5.2917 0 0 1 5.2917-5.2917 5.2917 5.2917 0 0 1 5.2917 5.2917z" style="fill:#f2f2f2;paint-order:normal;stroke-linecap:round;stroke-width:.75045;stroke:#000"/>
   <path d="m70.824 121.05 9.1654 5.2917m-1.9369-7.2285-5.2917 9.1654" style="fill:#f2f2f2;stroke-width:.26458px;stroke:#000"/>
  </g>
  <g transform="matrix(.66987 0 0 .66987 135.4 60.596)" style="fill:#f2f2f2">
   <path d="m80.698 123.7a5.2917 5.2917 0 0 1-5.2917 5.2917 5.2917 5.2917 0 0 1-5.2917-5.2917 5.2917 5.2917 0 0 1 5.2917-5.2917 5.2917 5.2917 0 0 1 5.2917 5.2917z" style="fill:#f2f2f2;paint-order:normal;stroke-linecap:round;stroke-width:.75045;stroke:#000"/>
   <path d="m70.824 121.05 9.1654 5.2917m-1.9369-7.2285-5.2917 9.1654" style="fill:#f2f2f2;stroke-width:.26458px;stroke:#000"/>
  </g>
  <g transform="matrix(.66987 0 0 .66987 149.31 60.596)" style="fill:#f2f2f2">
   <path d="m80.698 123.7a5.2917 5.2917 0 0 1-5.2917 5.2917 5.2917 5.2917 0 0 1-5.2917-5.2917 5.2917 5.2917 0 0 1 5.2917-5.2917 5.2917 5.2917 0 0 1 5.2917 5.2917z" style="fill:#f2f2f2;paint-order:normal;stroke-linecap:round;stroke-width:.75045;stroke:#000"/>
   <path d="m70.824 121.05 9.1654 5.2917m-1.9369-7.2285-5.2917 9.1654" style="fill:#f2f2f2;stroke-width:.26458px;stroke:#000"/>
  </g>
  <g transform="matrix(.66987 0 0 .66987 163.22 60.596)" style="fill:#f2f2f2">
   <path d="m80.698 123.7a5.2917 5.2917 0 0 1-5.2917 5.2917 5.2917 5.2917 0 0 1-5.2917-5.2917 5.2917 5.2917 0 0 1 5.2917-5.2917 5.2917 5.2917 0 0 1 5.2917 5.2917z" style="fill:#f2f2f2;paint-order:normal;stroke-linecap:round;stroke-width:.75045;stroke:#000"/>
   <path d="m70.824 121.05 9.1654 5.2917m-1.9369-7.2285-5.2917 9.1654" style="fill:#f2f2f2;stroke-width:.26458px;stroke:#000"/>
  </g>
  <g style="fill:#01023a;font-feature-settings:normal;font-variant-caps:normal;font-variant-ligatures:normal;font-variant-numeric:normal;stroke-width:.26458" aria-label="I0">
   <path d="m114.09 134.54h1.8934v0.47129h-0.64285v1.8459h0.64285v0.47128h-1.8934v-0.47128h0.64285v-1.8459h-0.64285z" style="fill:#01023a;stroke-width:.26458"/>
   <path d="m118.6 135.93q0 0.70073-0.26458 1.0687t-0.76894 0.36793q-0.50643 0-0.76481-0.36586-0.25631-0.36794-0.25631-1.0707 0-0.7276 0.25011-1.0811 0.25218-0.35553 0.78755-0.35553 0.51676 0 0.76687 0.35966 0.25011 0.35967 0.25011 1.0769zm-0.58291 0q0-0.3638-0.0434-0.57464-0.0434-0.2129-0.13436-0.31005-0.091-0.0971-0.26045-0.0971-0.17776 0-0.27285 0.0971-0.0951 0.0971-0.13849 0.31005-0.0413 0.21084-0.0413 0.57464 0 0.35967 0.0434 0.57257 0.0455 0.21291 0.13849 0.31006 0.093 0.0971 0.26251 0.0971 0.23978 0 0.34313-0.22531t0.10335-0.75447zm-0.66765 0.24805v-0.5147h0.44441v0.5147z" style="fill:#01023a;stroke-width:.26458"/>
  </g>
  <g style="fill:#01023a;font-feature-settings:normal;font-variant-caps:normal;font-variant-ligatures:normal;font-variant-numeric:normal;stroke-width:.26458" aria-label="I1">
   <path d="m127.97 134.54h1.8934v0.47129h-0.64285v1.8459h0.64285v0.47128h-1.8934v-0.47128h0.64285v-1.8459h-0.64285z" style="fill:#01023a;stroke-width:.26458"/>
   <path d="m130.49 137.33v-0.43201h0.80408v-1.8417q-0.0806 0.1695-0.32246 0.28525-0.23978 0.11575-0.50436 0.11575v-0.44234q0.28732 0 0.5147-0.12609 0.22737-0.12609 0.34312-0.34727h0.54984v2.3564h0.66765v0.43201z" style="fill:#01023a;stroke-width:.26458"/>
  </g>
  <g style="fill:#01023a;font-feature-settings:normal;font-variant-caps:normal;font-variant-ligatures:normal;font-variant-numeric:normal;stroke-width:.26458" aria-label="I2">
   <path d="m141.92 134.54h1.8934v0.47129h-0.64285v1.8459h0.64285v0.47128h-1.8934v-0.47128h0.64285v-1.8459h-0.64285z" style="fill:#01023a;stroke-width:.26458"/>
   <path d="m144.38 137.33v-0.40307q0.10335-0.22737 0.29352-0.45475 0.19224-0.22944 0.5581-0.52709 0.28525-0.23358 0.37-0.32246 0.0848-0.0889 0.13229-0.17157 0.0496-0.0848 0.0496-0.17156 0-0.14883-0.0971-0.23358-0.0971-0.0847-0.28525-0.0847-0.18603 0-0.28525 0.10129-0.0971 0.0992-0.12609 0.29972l-0.58497-0.0331q0.0496-0.40514 0.30178-0.61805 0.25425-0.2129 0.6904-0.2129 0.45061 0 0.71313 0.2067 0.26251 0.20464 0.26251 0.54983 0 0.22531-0.14263 0.44028-0.14056 0.21291-0.42374 0.43408-0.40101 0.31006-0.5395 0.44648-0.13849 0.13643-0.2005 0.27699h1.3518v0.47748z" style="fill:#01023a;stroke-width:.26458"/>
  </g>
  <g style="fill:#01023a;font-feature-settings:normal;font-variant-caps:normal;font-variant-ligatures:normal;font-variant-numeric:normal;stroke-width:.26458" aria-label="I3">
   <path d="m155.81 134.54h1.8934v0.47129h-0.64285v1.8459h0.64285v0.47128h-1.8934v-0.47128h0.64285v-1.8459h-0.64285z" style="fill:#01023a;stroke-width:.26458"/>
   <path d="m160.35 136.55q0 0.39067-0.28111 0.60771-0.27905 0.21704-0.77308 0.21704-0.47542 0-0.75447-0.20671-0.27698-0.20877-0.32452-0.60151l0.59117-0.0517q0.0517 0.3886 0.48576 0.3886 0.21703 0 0.33899-0.10335 0.12196-0.10542 0.12196-0.28525 0-0.17984-0.1509-0.27492-0.14883-0.0951-0.42788-0.0951h-0.20257v-0.46922h0.19017q0.25218 0 0.38654-0.0951 0.13642-0.0971 0.13642-0.26871 0-0.15503-0.11368-0.25425-0.11162-0.0992-0.29972-0.0992-0.17777 0-0.29352 0.0847-0.11576 0.0827-0.1323 0.26458l-0.58083-0.0413q0.0455-0.37 0.31212-0.5705 0.26871-0.2005 0.70486-0.2005 0.30592 0 0.52916 0.093 0.22531 0.093 0.34313 0.26252 0.11989 0.16743 0.11989 0.3886 0 0.25425-0.16123 0.42375-0.16123 0.16949-0.46095 0.22737v8e-3q0.32453 0.0372 0.51056 0.2129 0.18603 0.17363 0.18603 0.43822z" style="fill:#01023a;stroke-width:.26458"/>
  </g>
  <g style="fill:#01023a;font-feature-settings:normal;font-variant-caps:normal;font-variant-ligatures:normal;font-variant-numeric:normal;stroke-width:.26458" aria-label="I4">
   <path d="m169.68 134.54h1.8934v0.47129h-0.64285v1.8459h0.64285v0.47128h-1.8934v-0.47128h0.64285v-1.8459h-0.64285z" style="fill:#01023a;stroke-width:.26458"/>
   <path d="m173.92 136.73v0.59324h-0.55397v-0.59324h-1.325v-0.43614l1.2299-1.7591h0.64906v1.7632h0.3886v0.43201zm-0.55397-1.2816q0-0.11162 6e-3 -0.24185 8e-3 -0.13022 0.0124-0.16743-0.0537 0.11576-0.1943 0.33486l-0.66145 0.92397h0.83715z" style="fill:#01023a;stroke-width:.26458"/>
  </g>
  <g style="fill:#01023a;font-feature-settings:normal;font-variant-caps:normal;font-variant-ligatures:normal;font-variant-numeric:normal;stroke-width:.26458" aria-label="I5">
   <path d="m183.64 134.54h1.8934v0.47129h-0.64285v1.8459h0.64285v0.47128h-1.8934v-0.47128h0.64285v-1.8459h-0.64285z" style="fill:#01023a;stroke-width:.26458"/>
   <path d="m188.18 136.39q0 0.28938-0.13023 0.51262-0.12815 0.22118-0.37413 0.3452-0.24391 0.12195-0.57464 0.12195-0.43821 0-0.70279-0.19636-0.26252-0.19844-0.32453-0.57258l0.58084-0.0475q0.0455 0.18604 0.16123 0.27079 0.11576 0.0847 0.29145 0.0847 0.22324 0 0.34933-0.13229t0.12609-0.37413q0-0.21497-0.12195-0.34313-0.12196-0.13022-0.34106-0.13022-0.24185 0-0.39481 0.1881h-0.56637l0.10129-1.5772h1.7508v0.43202h-1.2237l-0.0475 0.67385q0.21084-0.18603 0.5271-0.18603 0.41547 0 0.66352 0.25631 0.25011 0.25425 0.25011 0.67386z" style="fill:#01023a;stroke-width:.26458"/>
  </g>
  <g style="fill:#01023a;font-feature-settings:normal;font-variant-caps:normal;font-variant-ligatures:normal;font-variant-numeric:normal;stroke-width:.26458" aria-label="I6">
   <path d="m197.56 134.54h1.8934v0.47129h-0.64285v1.8459h0.64285v0.47128h-1.8934v-0.47128h0.64285v-1.8459h-0.64285z" style="fill:#01023a;stroke-width:.26458"/>
   <path d="m202.08 136.41q0 0.44855-0.26251 0.70693-0.26251 0.25631-0.71726 0.25631-0.50643 0-0.78755-0.37826-0.27905-0.38034-0.27905-1.0521 0-0.73173 0.27905-1.0873 0.28112-0.35553 0.80202-0.35553 0.37 0 0.5829 0.16329 0.21497 0.1633 0.30386 0.50643l-0.54777 0.0765q-0.0786-0.28732-0.3514-0.28732-0.23564 0-0.36793 0.22531-0.13229 0.22324-0.13229 0.65525 0.093-0.15503 0.25838-0.23771 0.16536-0.0827 0.37413-0.0827 0.38241 0 0.61392 0.24184 0.2315 0.23978 0.2315 0.64905zm-0.5829 0.0165q0-0.22531-0.11576-0.3514-0.11368-0.12815-0.31419-0.12815-0.18603 0-0.30592 0.11575-0.11782 0.11369-0.11782 0.30179 0 0.23357 0.12196 0.3948 0.12195 0.16123 0.31625 0.16123 0.19224 0 0.30386-0.13229t0.11162-0.36173z" style="fill:#01023a;stroke-width:.26458"/>
  </g>
  <g style="fill:#01023a;font-feature-settings:normal;font-variant-caps:normal;font-variant-ligatures:normal;font-variant-numeric:normal;stroke-width:.26458" aria-label="I7">
   <path d="m211.5 134.54h1.8934v0.47129h-0.64285v1.8459h0.64285v0.47128h-1.8934v-0.47128h0.64285v-1.8459h-0.64285z" style="fill:#01023a;stroke-width:.26458"/>
   <path d="m215.97 135q-0.5271 0.71934-0.74207 1.2588-0.21497 0.5395-0.21497 1.0687h-0.60565q0-0.53743 0.24598-1.1017 0.24805-0.56637 0.77721-1.2092h-1.4469v-0.47749h1.9864z" style="fill:#01023a;stroke-width:.26458"/>
  </g>
  <g transform="matrix(.66987 0 0 .66987 23.523 60.596)" style="fill:#f2f2f2">
   <path d="m80.698 123.7a5.2917 5.2917 0 0 1-5.2917 5.2917 5.2917 5.2917 0 0 1-5.2917-5.2917 5.2917 5.2917 0 0 1 5.2917-5.2917 5.2917 5.2917 0 0 1 5.2917 5.2917z" style="fill:#f2f2f2;paint-order:normal;stroke-linecap:round;stroke-width:.75045;stroke:#000"/>
   <path d="m70.824 121.05 9.1654 5.2917m-1.9369-7.2285-5.2917 9.1654" style="fill:#f2f2f2;stroke-width:.26458px;stroke:#000"/>
  </g>
  <g transform="matrix(.66987 0 0 .66987 36.752 60.596)" style="fill:#f2f2f2">
   <path d="m80.698 123.7a5.2917 5.2917 0 0 1-5.2917 5.2917 5.2917 5.2917 0 0 1-5.2917-5.2917 5.2917 5.2917 0 0 1 5.2917-5.2917 5.2917 5.2917 0 0 1 5.2917 5.2917z" style="fill:#f2f2f2;paint-order:normal;stroke-linecap:round;stroke-width:.75045;stroke:#000"/>
   <path d="m70.824 121.05 9.1654 5.2917m-1.9369-7.2285-5.2917 9.1654" style="fill:#f2f2f2;stroke-width:.26458px;stroke:#000"/>
  </g>
  <g style="fill:#01023a;font-feature-settings:normal;font-variant-caps:normal;font-variant-ligatures:normal;font-variant-numeric:normal;stroke-width:.26458" aria-label="+">
   <path d="m74.266 136.15v0.84335h-0.46715v-0.84335h-0.82475v-0.46302h0.82475v-0.84335h0.46715v0.84335h0.83095v0.46302z" style="fill:#01023a;stroke-width:.26458"/>
  </g>
  <g style="fill:#01023a;font-feature-settings:normal;font-variant-caps:normal;font-variant-ligatures:normal;font-variant-numeric:normal;stroke-width:.26458" aria-label="-">
   <path d="m86.665 136.48v-0.50435h1.1989v0.50435z" style="fill:#01023a;stroke-width:.26458"/>
  </g>
 </g>
 <rect x="2.2325" y="48.341" width="182.77" height="74.076" rx="0" ry="0" style="fill:#f8f6ed;paint-order:normal;stroke-linecap:round;stroke-width:.465;stroke:#000"/>
 <g transform="translate(-50.268 -108)">
  <g transform="translate(0,10.229)">
   <rect x="66.428" y="158.88" width="71.989" height="44.492" style="fill:#d2e1e6;paint-order:normal;stroke-linecap:round;stroke-width:.46487;stroke:#3e3e3e"/>
   <g transform="translate(1.145 .45115)" style="font-feature-settings:normal;font-variant-caps:normal;font-variant-ligatures:normal;font-variant-numeric:normal" aria-label="SIMULADOR Clp MODBUS TCP">
    <path d="m75.648 165.97h2.2634l0.14125 0.14125-0.40308 0.31695h-1.9017l-0.26872-0.36174zm-0.24116 0.14469 0.28939 0.36174-0.28939 1.6881-0.22393 0.17226-0.21015-0.2446 0.3135-1.881zm2.0085 2.074 0.20671 0.22738-0.27216 0.25149h-0.95085l0.06546-0.47887zm-1.9603 0.47887-0.24116-0.26183 0.28939-0.21704h0.90606l-0.0689 0.47887zm2.1911-0.16881 0.21704 0.24115-0.3135 1.8879-0.14469 0.0896-0.2825-0.34106 0.28594-1.664zm-2.4701 1.9258 1.8845 3e-3 0.27216 0.36174-0.19293 0.12057h-2.2393l-0.12058-0.14469z" style="stroke-width:.26458"/>
    <path d="m79.796 165.97h2.2634l0.14125 0.14125-0.40308 0.31695h-1.9017l-0.26872-0.36174zm-0.47198 4.4545 1.8845 3e-3 0.27216 0.36174-0.19292 0.12057h-2.2393l-0.12058-0.14469zm1.0232-2.2703h0.45131l0.27905-1.6778h-0.4582zm-0.04479 0.55121h0.44097l-0.26527 1.6778h-0.4582z" style="stroke-width:.26458"/>
    <path d="m83.702 166.11 0.28939 0.36174-0.28939 1.6881-0.22393 0.17226-0.21015-0.2446 0.3135-1.881zm2.6975 0.0482 0.12058 0.1447-0.28939 1.8328-0.26527 0.21704-0.19293-0.21704 0.23427-1.6709zm-2.9387 2.3117 0.19293 0.24116-0.25149 1.6605-0.39963 0.31694-0.09646-0.14469 0.3135-1.9051zm2.4805 0.0241 0.21704 0.24115-0.3135 1.8879-0.14469 0.0896-0.2825-0.34106 0.28594-1.664zm0.01722-2.0223-0.0379 0.28594-0.61323 1.3918h-0.3135l0.04134-0.28594 0.62356-1.3918zm-1.9293-7e-3h0.2825l0.19292 1.3746-0.04823 0.3135h-0.30661l-0.17225-1.3884zm0.4203 2.2359h0.44097l-0.26527 1.6778h-0.4582z" style="stroke-width:.26458"/>
    <path d="m87.837 166.11 0.28939 0.36174-0.28939 1.6881-0.22393 0.17226-0.21015-0.2446 0.3135-1.881zm2.6975 0.0482 0.12058 0.1447-0.28939 1.8328-0.26527 0.21704-0.19292-0.21704 0.23427-1.6709zm-2.9387 2.3117 0.19292 0.24116-0.25149 1.6605-0.39963 0.31694-0.09646-0.14469 0.3135-1.9051zm2.4805 0.0241 0.21704 0.24115-0.3135 1.8879-0.14469 0.0896-0.2825-0.34106 0.28594-1.664zm-2.4701 1.9258 1.8845 3e-3 0.27216 0.36174-0.19293 0.12057h-2.2393l-0.12058-0.14469z" style="stroke-width:.26458"/>
    <path d="m91.985 166.11 0.28939 0.36174-0.28939 1.6881-0.22393 0.17226-0.21015-0.2446 0.3135-1.881zm-0.24116 2.3599 0.19293 0.24116-0.25149 1.6605-0.39963 0.31694-0.09646-0.14469 0.3135-1.9051zm0.01034 1.9499 1.8845 3e-3 0.27216 0.36174-0.19292 0.12057h-2.2393l-0.12058-0.14469z" style="stroke-width:.26458"/>
    <path d="m96.374 165.97h2.2634l0.14125 0.14125-0.40308 0.31695h-1.9017l-0.26872-0.36174zm-0.24116 0.14469 0.28939 0.36174-0.28939 1.6881-0.22393 0.17226-0.21015-0.2446 0.3135-1.881zm2.6975 0.0482 0.12058 0.1447-0.28939 1.8328-0.26527 0.21704-0.19293-0.21704 0.23427-1.6709zm-0.68902 2.0257 0.2067 0.22738-0.27216 0.25149h-0.95085l0.06546-0.47887zm-1.9603 0.47887-0.24116-0.26183 0.28939-0.21704h0.90606l-0.0689 0.47887zm-0.28939-0.19293 0.19293 0.24116-0.25149 1.6605-0.39963 0.31694-0.09646-0.14469 0.3135-1.9051zm2.4805 0.0241 0.21704 0.24115-0.3135 1.8879-0.14469 0.0896-0.2825-0.34106 0.28594-1.664z" style="stroke-width:.26458"/>
    <path d="m100.51 165.97h2.2634l0.14125 0.14125-0.40307 0.31695h-1.9017l-0.26871-0.36174zm2.4564 0.19292 0.12058 0.1447-0.28939 1.8328-0.26527 0.21704-0.19293-0.21704 0.23427-1.6709zm-0.4582 2.3358 0.21704 0.24115-0.3135 1.8879-0.1447 0.0896-0.28249-0.34106 0.28594-1.664zm-2.4701 1.9258 1.8845 3e-3 0.27217 0.36174-0.19293 0.12057h-2.2393l-0.12058-0.14469zm1.0232-2.2703h0.45131l0.27905-1.6778h-0.4582zm-0.0448 0.55121h0.44098l-0.26528 1.6778h-0.45819z" style="stroke-width:.26458"/>
    <path d="m104.64 165.97h2.2634l0.14125 0.14125-0.40308 0.31695h-1.9017l-0.26872-0.36174zm-0.24116 0.14469 0.28939 0.36174-0.28939 1.6881-0.22393 0.17226-0.21015-0.2446 0.31351-1.881zm2.6975 0.0482 0.12058 0.1447-0.28939 1.8328-0.26527 0.21704-0.19292-0.21704 0.23426-1.6709zm-2.9387 2.3117 0.19292 0.24116-0.25149 1.6605-0.39963 0.31694-0.0965-0.14469 0.3135-1.9051zm2.4805 0.0241 0.21704 0.24115-0.31351 1.8879-0.14469 0.0896-0.2825-0.34106 0.28594-1.664zm-2.4701 1.9258 1.8845 3e-3 0.27216 0.36174-0.19292 0.12057h-2.2393l-0.12057-0.14469z" style="stroke-width:.26458"/>
    <path d="m108.79 165.97h2.2634l0.14125 0.14125-0.40308 0.31695h-1.9017l-0.26872-0.36174zm-0.24115 0.14469 0.28938 0.36174-0.28938 1.6881-0.22394 0.17226-0.21015-0.2446 0.31351-1.881zm2.6975 0.0482 0.12057 0.1447-0.28938 1.8328-0.26528 0.21704-0.19292-0.21704 0.23426-1.6709zm-0.68902 2.0257 0.2067 0.22738-0.27216 0.25149h-0.95085l0.0655-0.47887zm-1.9603 0.47887-0.24116-0.26183 0.28939-0.21704h0.90606l-0.0689 0.47887zm-0.28939-0.19293 0.19292 0.24116-0.25149 1.6605-0.39963 0.31694-0.0965-0.14469 0.3135-1.9051zm1.4745 0.23427h0.2825l0.19292 1.3746-0.0482 0.31351h-0.30661l-0.17226-1.3884z" style="stroke-width:.26458"/>
    <path d="m117.09 165.97h2.2634l0.14125 0.14125-0.40308 0.31695h-1.9017l-0.26872-0.36174zm-0.24115 0.14469 0.28939 0.36174-0.28939 1.6881-0.22393 0.17226-0.21015-0.2446 0.3135-1.881zm-0.24116 2.3599 0.19293 0.24116-0.2515 1.6605-0.39963 0.31694-0.0965-0.14469 0.3135-1.9051zm0.0103 1.9499 1.8845 3e-3 0.27217 0.36174-0.19293 0.12057h-2.2393l-0.12058-0.14469z" style="stroke-width:.26458"/>
    <path d="m120.98 166.11 0.28939 0.36174-0.28939 1.6881-0.22393 0.17226-0.21015-0.2446 0.3135-1.881zm-0.24116 2.3599 0.19293 0.24116-0.25149 1.6605-0.39963 0.31694-0.0965-0.14469 0.31351-1.9051zm0.0103 1.9499 1.8845 3e-3 0.27216 0.36174-0.19293 0.12057h-2.2393l-0.12058-0.14469z" style="stroke-width:.26458"/>
    <path d="m125.37 165.97h2.2634l0.14125 0.14125-0.40308 0.31695h-1.9017l-0.26872-0.36174zm-0.24115 0.14469 0.28938 0.36174-0.28938 1.6881-0.22393 0.17226-0.21016-0.2446 0.31351-1.881zm2.6975 0.0482 0.12057 0.1447-0.28938 1.8328-0.26528 0.21704-0.19292-0.21704 0.23427-1.6709zm-0.68902 2.0257 0.2067 0.22738-0.27216 0.25149h-0.95085l0.0655-0.47887zm-1.9603 0.47887-0.24116-0.26183 0.28939-0.21704h0.90606l-0.0689 0.47887zm-0.28939-0.19293 0.19292 0.24116-0.25149 1.6605-0.39963 0.31694-0.0965-0.14469 0.3135-1.9051z" style="stroke-width:.26458"/>
    <path d="m75.407 173.87 0.28939 0.36174-0.28939 1.6881-0.22393 0.17226-0.21015-0.2446 0.3135-1.881zm2.6975 0.0482 0.12058 0.1447-0.28939 1.8328-0.26527 0.21704-0.19292-0.21704 0.23427-1.6709zm-2.9387 2.3117 0.19292 0.24116-0.25149 1.6605-0.39963 0.31694-0.09646-0.14469 0.3135-1.9051zm2.4805 0.0241 0.21704 0.24116-0.3135 1.8879-0.14469 0.0896-0.2825-0.34106 0.28594-1.664zm0.01723-2.0223-0.0379 0.28594-0.61323 1.3918h-0.3135l0.04134-0.28594 0.62356-1.3918zm-1.9293-7e-3h0.2825l0.19293 1.3746-0.04823 0.3135h-0.30661l-0.17226-1.3884zm0.4203 2.2359h0.44097l-0.26527 1.6778h-0.4582z" style="stroke-width:.26458"/>
    <path d="m79.782 173.73h2.2634l0.14125 0.14125-0.40308 0.31695h-1.9017l-0.26872-0.36174zm-0.24116 0.14469 0.28939 0.36174-0.28939 1.6881-0.22393 0.17226-0.21015-0.2446 0.3135-1.881zm2.6975 0.0482 0.12058 0.1447-0.28939 1.8328-0.26527 0.21704-0.19292-0.21704 0.23427-1.6709zm-2.9387 2.3117 0.19292 0.24116-0.25149 1.6605-0.39963 0.31694-0.09646-0.14469 0.3135-1.9051zm2.4805 0.0241 0.21704 0.24116-0.3135 1.8879-0.14469 0.0896-0.2825-0.34106 0.28594-1.664zm-2.4701 1.9258 1.8845 3e-3 0.27216 0.36174-0.19292 0.12058h-2.2393l-0.12058-0.1447z" style="stroke-width:.26458"/>
    <path d="m83.93 173.73h2.2634l0.14125 0.14125-0.40308 0.31695h-1.9017l-0.26872-0.36174zm2.4564 0.19292 0.12058 0.1447-0.28939 1.8328-0.26527 0.21704-0.19292-0.21704 0.23427-1.6709zm-0.4582 2.3358 0.21704 0.24116-0.3135 1.8879-0.14469 0.0896-0.2825-0.34106 0.28594-1.664zm-2.4701 1.9258 1.8845 3e-3 0.27216 0.36174-0.19293 0.12058h-2.2393l-0.12058-0.1447zm1.0232-2.2703h0.45131l0.27905-1.6778h-0.4582zm-0.04479 0.55121h0.44097l-0.26527 1.6778h-0.4582z" style="stroke-width:.26458"/>
    <path d="m88.064 173.73h2.2634l0.14125 0.14125-0.40308 0.31695h-1.9017l-0.26872-0.36174zm2.4564 0.19292 0.12058 0.1447-0.28939 1.8328-0.26527 0.21704-0.19292-0.21704 0.23427-1.6709zm-0.68902 2.0257 0.20671 0.22738-0.27216 0.25149h-0.95085l0.06546-0.47887zm0.23082 0.31006 0.21704 0.24116-0.3135 1.8879-0.14469 0.0896-0.2825-0.34106 0.28594-1.664zm-2.4701 1.9258 1.8845 3e-3 0.27216 0.36174-0.19292 0.12058h-2.2393l-0.12058-0.1447zm1.0232-2.2703h0.45131l0.27905-1.6778h-0.4582zm-0.04479 0.55121h0.44097l-0.26527 1.6778h-0.4582z" style="stroke-width:.26458"/>
    <path d="m91.971 173.87 0.28939 0.36174-0.28939 1.6881-0.22393 0.17226-0.21015-0.2446 0.3135-1.881zm2.6975 0.0482 0.12058 0.1447-0.28939 1.8328-0.26527 0.21704-0.19292-0.21704 0.23427-1.6709zm-2.9387 2.3117 0.19292 0.24116-0.25149 1.6605-0.39963 0.31694-0.09646-0.14469 0.3135-1.9051zm2.4805 0.0241 0.21704 0.24116-0.3135 1.8879-0.14469 0.0896-0.2825-0.34106 0.28594-1.664zm-2.4701 1.9258 1.8845 3e-3 0.27216 0.36174-0.19292 0.12058h-2.2393l-0.12058-0.1447z" style="stroke-width:.26458"/>
    <path d="m96.36 173.73h2.2634l0.14125 0.14125-0.40308 0.31695h-1.9017l-0.26872-0.36174zm-0.24116 0.14469 0.28939 0.36174-0.28939 1.6881-0.22393 0.17226-0.21015-0.2446 0.3135-1.881zm2.0085 2.074 0.20671 0.22738-0.27216 0.25149h-0.95085l0.06546-0.47887zm-1.9603 0.47887-0.24116-0.26183 0.28939-0.21704h0.90606l-0.0689 0.47887zm2.1911-0.16881 0.21704 0.24116-0.3135 1.8879-0.14469 0.0896-0.2825-0.34106 0.28594-1.664zm-2.4701 1.9258 1.8845 3e-3 0.27216 0.36174-0.19293 0.12058h-2.2393l-0.12058-0.1447z" style="stroke-width:.26458"/>
    <path d="m104.66 173.73h2.2634l0.14125 0.14125-0.40308 0.31695h-1.9017l-0.26872-0.36174zm0.55121 2.1842h0.45131l0.27905-1.6778h-0.45819zm-0.0448 0.55121h0.44097l-0.26527 1.6778h-0.4582z" style="stroke-width:.26458"/>
    <path d="m108.8 173.73h2.2634l0.14125 0.14125-0.40307 0.31695h-1.9017l-0.26872-0.36174zm-0.24115 0.14469 0.28939 0.36174-0.28939 1.6881-0.22393 0.17226-0.21015-0.2446 0.3135-1.881zm-0.24116 2.3599 0.19293 0.24116-0.2515 1.6605-0.39963 0.31694-0.0965-0.14469 0.3135-1.9051zm0.0103 1.9499 1.8845 3e-3 0.27217 0.36174-0.19293 0.12058h-2.2393l-0.12058-0.1447z" style="stroke-width:.26458"/>
    <path d="m112.94 173.73h2.2634l0.14124 0.14125-0.40307 0.31695h-1.9017l-0.26872-0.36174zm-0.24116 0.14469 0.28939 0.36174-0.28939 1.6881-0.22393 0.17226-0.21015-0.2446 0.3135-1.881zm2.6975 0.0482 0.12058 0.1447-0.28939 1.8328-0.26527 0.21704-0.19293-0.21704 0.23427-1.6709zm-0.68902 2.0257 0.20671 0.22738-0.27216 0.25149h-0.95085l0.0655-0.47887zm-1.9603 0.47887-0.24115-0.26183 0.28938-0.21704h0.90606l-0.0689 0.47887zm-0.28939-0.19293 0.19293 0.24116-0.25149 1.6605-0.39963 0.31694-0.0965-0.14469 0.31351-1.9051z" style="stroke-width:.26458"/>
   </g>
   <path d="m76.277 187.44h1.3581l0.08475 0.0847-0.24185 0.19017h-1.141l-0.16123-0.21704zm-0.14469 0.0868 0.17363 0.21704-0.17363 1.0129-0.13436 0.10335-0.12609-0.14676 0.1881-1.1286zm1.2051 1.2444 0.12402 0.13642-0.1633 0.1509h-0.57051l0.03927-0.28732zm-1.1762 0.28732-0.14469-0.1571 0.17363-0.13022h0.54364l-0.04134 0.28732zm1.3146-0.10129 0.13022 0.1447-0.1881 1.1328-0.08682 0.0537-0.1695-0.20464 0.17157-0.99839zm-1.4821 1.1555 1.1307 2e-3 0.1633 0.21704-0.11576 0.0723h-1.3436l-0.07235-0.0868z" style="font-feature-settings:normal;font-variant-caps:normal;font-variant-ligatures:normal;font-variant-numeric:normal"/>
   <path d="m78.765 187.44h1.3581l0.08475 0.0847-0.24184 0.19017h-1.141l-0.16123-0.21704zm-0.28319 2.6727 1.1307 2e-3 0.1633 0.21704-0.11576 0.0723h-1.3436l-0.07235-0.0868zm0.61392-1.3622h0.27078l0.16743-1.0067h-0.27492zm-0.02687 0.33073h0.26458l-0.15916 1.0066h-0.27492z" style="font-feature-settings:normal;font-variant-caps:normal;font-variant-ligatures:normal;font-variant-numeric:normal"/>
   <path d="m81.254 187.44h1.3581l0.08475 0.0847-0.24184 0.19017h-1.141l-0.16123-0.21704zm-0.14469 0.0868 0.17363 0.21704-0.17363 1.0129-0.13436 0.10335-0.12609-0.14676 0.1881-1.1286zm1.2051 1.2444 0.12402 0.13642-0.1633 0.1509h-0.57051l0.03927-0.28732zm-1.3498 0.17156 0.11576 0.1447-0.1509 0.99632-0.23978 0.19017-0.05788-0.0868 0.1881-1.1431zm1.4883 0.0145 0.13022 0.1447-0.1881 1.1328-0.08682 0.0537-0.1695-0.20464 0.17157-0.99839zm-1.4821 1.1555 1.1307 2e-3 0.1633 0.21704-0.11576 0.0723h-1.3436l-0.07235-0.0868z" style="font-feature-settings:normal;font-variant-caps:normal;font-variant-ligatures:normal;font-variant-numeric:normal"/>
   <path d="m83.743 187.44h1.3581l0.08475 0.0847-0.24185 0.19017h-1.141l-0.16123-0.21704zm-0.14469 0.0868 0.17363 0.21704-0.17363 1.0129-0.13436 0.10335-0.12609-0.14676 0.1881-1.1286zm1.6185 0.0289 0.07235 0.0868-0.17363 1.0997-0.15916 0.13022-0.11576-0.13022 0.14056-1.0025zm-0.41341 1.2154 0.12402 0.13642-0.1633 0.1509h-0.57051l0.03927-0.28732zm-1.1762 0.28732-0.14469-0.1571 0.17363-0.13022h0.54364l-0.04134 0.28732zm-0.17363-0.11576 0.11576 0.1447-0.1509 0.99632-0.23978 0.19017-0.05788-0.0868 0.1881-1.1431zm1.4883 0.0145 0.13022 0.1447-0.1881 1.1328-0.08682 0.0537-0.1695-0.20464 0.17157-0.99839z" style="font-feature-settings:normal;font-variant-caps:normal;font-variant-ligatures:normal;font-variant-numeric:normal"/>
   <path d="m88.712 187.44h1.3581l0.08475 0.0847-0.24185 0.19017h-1.141l-0.16123-0.21704zm-0.14469 0.0868 0.17363 0.21704-0.17363 1.0129-0.13436 0.10335-0.12609-0.14676 0.1881-1.1286zm1.6185 0.0289 0.07235 0.0868-0.17363 1.0997-0.15916 0.13022-0.11576-0.13022 0.14056-1.0025zm-0.41341 1.2154 0.12402 0.13642-0.1633 0.1509h-0.57051l0.03927-0.28732zm-1.1762 0.28732-0.14469-0.1571 0.17363-0.13022h0.54364l-0.04134 0.28732zm-0.17363-0.11576 0.11576 0.1447-0.1509 0.99632-0.23978 0.19017-0.05788-0.0868 0.1881-1.1431zm1.4883 0.0145 0.13022 0.1447-0.1881 1.1328-0.08682 0.0537-0.1695-0.20464 0.17157-0.99839z" style="font-feature-settings:normal;font-variant-caps:normal;font-variant-ligatures:normal;font-variant-numeric:normal"/>
   <path d="m91.193 187.44h1.3581l0.08475 0.0847-0.24185 0.19017h-1.141l-0.16123-0.21704zm-0.14469 0.0868 0.17363 0.21704-0.17363 1.0129-0.13436 0.10335-0.12609-0.14676 0.1881-1.1286zm1.2051 1.2444 0.12402 0.13642-0.1633 0.1509h-0.57051l0.03927-0.28732zm-1.1762 0.28732-0.14469-0.1571 0.17363-0.13022h0.54364l-0.04134 0.28732zm1.3146-0.10129 0.13022 0.1447-0.1881 1.1328-0.08682 0.0537-0.1695-0.20464 0.17157-0.99839zm-1.4821 1.1555 1.1307 2e-3 0.1633 0.21704-0.11576 0.0723h-1.3436l-0.07235-0.0868z" style="font-feature-settings:normal;font-variant-caps:normal;font-variant-ligatures:normal;font-variant-numeric:normal"/>
   <path d="m96.17 187.44h1.3581l0.08475 0.0847-0.24185 0.19017h-1.141l-0.16123-0.21704zm-0.14469 0.0868 0.17363 0.21704-0.17363 1.0129-0.13436 0.10335-0.12609-0.14676 0.1881-1.1286zm1.6185 0.0289 0.07235 0.0868-0.17363 1.0997-0.15916 0.13022-0.11576-0.13022 0.14056-1.0025zm-1.7632 1.387 0.11576 0.1447-0.1509 0.99632-0.23978 0.19017-0.05788-0.0868 0.1881-1.1431zm1.4883 0.0145 0.13022 0.1447-0.1881 1.1328-0.08682 0.0537-0.1695-0.20464 0.17157-0.99839zm-1.4821 1.1555 1.1307 2e-3 0.1633 0.21704-0.11576 0.0723h-1.3436l-0.07235-0.0868z" style="font-feature-settings:normal;font-variant-caps:normal;font-variant-ligatures:normal;font-variant-numeric:normal"/>
   <path d="m98.659 187.44h1.3581l0.0847 0.0847-0.24185 0.19017h-1.141l-0.16123-0.21704zm-0.14469 0.0868 0.17363 0.21704-0.17363 1.0129-0.13436 0.10335-0.12609-0.14676 0.1881-1.1286zm1.6185 0.0289 0.0724 0.0868-0.17363 1.0997-0.15916 0.13022-0.11576-0.13022 0.14056-1.0025zm-0.41341 1.2154 0.12402 0.13642-0.1633 0.1509h-0.57051l0.03928-0.28732zm-1.1762 0.28732-0.14469-0.1571 0.17363-0.13022h0.54364l-0.04134 0.28732zm-0.17363-0.11576 0.11576 0.1447-0.1509 0.99632-0.23978 0.19017-0.05788-0.0868 0.1881-1.1431zm0.8847 0.14056h0.1695l0.11576 0.82476-0.02894 0.1881h-0.18397l-0.10335-0.83302z" style="font-feature-settings:normal;font-variant-caps:normal;font-variant-ligatures:normal;font-variant-numeric:normal"/>
   <path d="m101.15 187.44h1.3581l0.0847 0.0847-0.24185 0.19017h-1.141l-0.16124-0.21704zm-0.28319 2.6727 1.1307 2e-3 0.16329 0.21704-0.11575 0.0723h-1.3436l-0.0724-0.0868zm0.61392-1.3622h0.27079l0.16743-1.0067h-0.27492zm-0.0269 0.33073h0.26458l-0.15916 1.0066h-0.27492z" style="font-feature-settings:normal;font-variant-caps:normal;font-variant-ligatures:normal;font-variant-numeric:normal"/>
   <path d="m103.64 187.44h1.3581l0.0847 0.0847-0.24185 0.19017h-1.141l-0.16123-0.21704zm-0.14469 0.0868 0.17363 0.21704-0.17363 1.0129-0.13436 0.10335-0.12609-0.14676 0.1881-1.1286zm1.2051 1.2444 0.12402 0.13642-0.16329 0.1509h-0.57051l0.0393-0.28732zm-1.1762 0.28732-0.14469-0.1571 0.17363-0.13022h0.54364l-0.0413 0.28732zm-0.17363-0.11576 0.11576 0.1447-0.1509 0.99632-0.23978 0.19017-0.0579-0.0868 0.18811-1.1431zm6e-3 1.17 1.1307 2e-3 0.1633 0.21704-0.11576 0.0723h-1.3436l-0.0724-0.0868z" style="font-feature-settings:normal;font-variant-caps:normal;font-variant-ligatures:normal;font-variant-numeric:normal"/>
   <path d="m105.98 187.53 0.17363 0.21704-0.17363 1.0129-0.13436 0.10335-0.12609-0.14676 0.1881-1.1286zm1.6185 0.0289 0.0723 0.0868-0.17363 1.0997-0.15916 0.13022-0.11576-0.13022 0.14056-1.0025zm-1.7632 1.387 0.11575 0.1447-0.15089 0.99632-0.23978 0.19017-0.0579-0.0868 0.1881-1.1431zm1.4883 0.0145 0.13022 0.1447-0.1881 1.1328-0.0868 0.0537-0.1695-0.20464 0.17157-0.99839zm-1.1472-1.2175h0.1695l0.11575 0.82475-0.0289 0.18811h-0.18397l-0.10336-0.83303zm0.54364 1.3436h0.1695l0.11575 0.82476-0.0289 0.1881h-0.18397l-0.10335-0.83302z" style="font-feature-settings:normal;font-variant-caps:normal;font-variant-ligatures:normal;font-variant-numeric:normal"/>
   <path d="m108.61 187.44h1.3581l0.0847 0.0847-0.24185 0.19017h-1.141l-0.16123-0.21704zm0.33073 1.3105h0.27079l0.16743-1.0067h-0.27492zm-0.0269 0.33073h0.26458l-0.15916 1.0066h-0.27492z" style="font-feature-settings:normal;font-variant-caps:normal;font-variant-ligatures:normal;font-variant-numeric:normal"/>
   <path d="m111.1 187.44h1.3581l0.0847 0.0847-0.24184 0.19017h-1.141l-0.16123-0.21704zm-0.1447 0.0868 0.17364 0.21704-0.17364 1.0129-0.13435 0.10335-0.12609-0.14676 0.1881-1.1286zm1.6185 0.0289 0.0724 0.0868-0.17364 1.0997-0.15916 0.13022-0.11575-0.13022 0.14056-1.0025zm-0.41341 1.2154 0.12402 0.13642-0.1633 0.1509h-0.5705l0.0393-0.28732zm-1.1762 0.28732-0.14469-0.1571 0.17363-0.13022h0.54364l-0.0413 0.28732zm-0.17363-0.11576 0.11576 0.1447-0.1509 0.99632-0.23978 0.19017-0.0579-0.0868 0.18811-1.1431zm1.4883 0.0145 0.13023 0.1447-0.18811 1.1328-0.0868 0.0537-0.1695-0.20464 0.17156-0.99839z" style="font-feature-settings:normal;font-variant-caps:normal;font-variant-ligatures:normal;font-variant-numeric:normal"/>
   <path d="m113.58 187.44h1.358l0.0847 0.0847-0.24184 0.19017h-1.141l-0.16123-0.21704zm-0.1447 0.0868 0.17364 0.21704-0.17364 1.0129-0.13436 0.10335-0.12609-0.14676 0.18811-1.1286zm-0.14469 1.4159 0.11575 0.1447-0.15089 0.99632-0.23978 0.19017-0.0579-0.0868 0.18811-1.1431zm6e-3 1.17 1.1307 2e-3 0.1633 0.21704-0.11576 0.0723h-1.3436l-0.0724-0.0868z" style="font-feature-settings:normal;font-variant-caps:normal;font-variant-ligatures:normal;font-variant-numeric:normal"/>
   <path d="m116.06 187.44h1.358l0.0847 0.0847-0.24184 0.19017h-1.141l-0.16123-0.21704zm-0.1447 0.0868 0.17363 0.21704-0.17363 1.0129-0.13436 0.10335-0.12609-0.14676 0.18811-1.1286zm1.6185 0.0289 0.0723 0.0868-0.17363 1.0997-0.15916 0.13022-0.11576-0.13022 0.14056-1.0025zm-1.7632 1.387 0.11575 0.1447-0.15089 0.99632-0.23978 0.19017-0.0579-0.0868 0.1881-1.1431zm1.4883 0.0145 0.13022 0.1447-0.1881 1.1328-0.0868 0.0537-0.1695-0.20464 0.17156-0.99839zm-1.4821 1.1555 1.1307 2e-3 0.1633 0.21704-0.11576 0.0723h-1.3436l-0.0723-0.0868z" style="font-feature-settings:normal;font-variant-caps:normal;font-variant-ligatures:normal;font-variant-numeric:normal"/>
   <path d="m118.55 187.44h1.3581l0.0847 0.0847-0.24185 0.19017h-1.141l-0.16123-0.21704zm-0.14469 0.0868 0.17363 0.21704-0.17363 1.0129-0.13436 0.10335-0.12609-0.14676 0.1881-1.1286zm1.2051 1.2444 0.12403 0.13642-0.1633 0.1509h-0.57051l0.0393-0.28732zm-1.1762 0.28732-0.1447-0.1571 0.17363-0.13022h0.54364l-0.0413 0.28732zm-0.17364-0.11576 0.11576 0.1447-0.1509 0.99632-0.23978 0.19017-0.0579-0.0868 0.1881-1.1431zm6e-3 1.17 1.1307 2e-3 0.1633 0.21704-0.11575 0.0723h-1.3436l-0.0724-0.0868z" style="font-feature-settings:normal;font-variant-caps:normal;font-variant-ligatures:normal;font-variant-numeric:normal"/>
   <path d="m121.04 187.44h1.3581l0.0847 0.0847-0.24185 0.19017h-1.141l-0.16123-0.21704zm-0.14469 0.0868 0.17363 0.21704-0.17363 1.0129-0.13436 0.10335-0.12609-0.14676 0.1881-1.1286zm1.2051 1.2444 0.12402 0.13642-0.16329 0.1509h-0.57051l0.0393-0.28732zm-1.1762 0.28732-0.1447-0.1571 0.17363-0.13022h0.54364l-0.0413 0.28732zm1.3146-0.10129 0.13023 0.1447-0.1881 1.1328-0.0868 0.0537-0.1695-0.20464 0.17157-0.99839zm-1.4821 1.1555 1.1307 2e-3 0.1633 0.21704-0.11575 0.0723h-1.3436l-0.0724-0.0868z" style="font-feature-settings:normal;font-variant-caps:normal;font-variant-ligatures:normal;font-variant-numeric:normal"/>
   <path d="m76.277 192.88h1.3581l0.08475 0.0848-0.24185 0.19017h-1.141l-0.16123-0.21704zm1.4738 0.11576 0.07235 0.0868-0.17363 1.0997-0.15916 0.13022-0.11576-0.13022 0.14056-1.0025zm-0.27492 1.4015 0.13022 0.1447-0.1881 1.1327-0.08682 0.0537-0.1695-0.20464 0.17157-0.99839zm-1.4821 1.1555 1.1307 2e-3 0.1633 0.21704-0.11576 0.0724h-1.3436l-0.07235-0.0868zm0.61392-1.3622h0.27078l0.16743-1.0067h-0.27492zm-0.02687 0.33073h0.26458l-0.15916 1.0066h-0.27492z" style="font-feature-settings:normal;font-variant-caps:normal;font-variant-ligatures:normal;font-variant-numeric:normal"/>
   <path d="m78.757 192.88h1.3581l0.08475 0.0848-0.24185 0.19017h-1.141l-0.16123-0.21704zm-0.14469 0.0868 0.17363 0.21704-0.17363 1.0129-0.13436 0.10335-0.12609-0.14676 0.1881-1.1286zm1.6185 0.0289 0.07235 0.0868-0.17363 1.0997-0.15916 0.13022-0.11576-0.13022 0.14056-1.0025zm-1.7632 1.387 0.11576 0.1447-0.1509 0.99632-0.23978 0.19017-0.05788-0.0868 0.1881-1.1431zm1.4883 0.0145 0.13022 0.1447-0.1881 1.1327-0.08682 0.0537-0.1695-0.20464 0.17156-0.99839zm-1.4821 1.1555 1.1307 2e-3 0.1633 0.21704-0.11576 0.0724h-1.3436l-0.07235-0.0868z" style="font-feature-settings:normal;font-variant-caps:normal;font-variant-ligatures:normal;font-variant-numeric:normal"/>
   <path d="m83.735 192.88h1.3581l0.08475 0.0848-0.24185 0.19017h-1.141l-0.16123-0.21704zm-0.28319 2.6727 1.1307 2e-3 0.1633 0.21704-0.11576 0.0724h-1.3436l-0.07235-0.0868zm0.61392-1.3622h0.27078l0.16743-1.0067h-0.27492zm-0.02687 0.33073h0.26458l-0.15916 1.0066h-0.27492z" style="font-feature-settings:normal;font-variant-caps:normal;font-variant-ligatures:normal;font-variant-numeric:normal"/>
   <path d="m86.079 192.96 0.17363 0.21704-0.17363 1.0129-0.13436 0.10335-0.12609-0.14676 0.1881-1.1286zm1.6185 0.0289 0.07235 0.0868-0.17363 1.0997-0.15916 0.13022-0.11576-0.13022 0.14056-1.0025zm-1.7632 1.387 0.11576 0.1447-0.1509 0.99632-0.23978 0.19017-0.05788-0.0868 0.1881-1.1431zm1.4883 0.0145 0.13022 0.1447-0.1881 1.1327-0.08682 0.0537-0.1695-0.20464 0.17157-0.99839zm-1.1472-1.2175h0.1695l0.11576 0.82475-0.02894 0.1881h-0.18397l-0.10335-0.83302zm0.54364 1.3436h0.1695l0.11576 0.82476-0.02894 0.1881h-0.18397l-0.10335-0.83302z" style="font-feature-settings:normal;font-variant-caps:normal;font-variant-ligatures:normal;font-variant-numeric:normal"/>
   <path d="m88.712 192.88h1.3581l0.08475 0.0848-0.24185 0.19017h-1.141l-0.16123-0.21704zm-0.14469 0.0868 0.17363 0.21704-0.17363 1.0129-0.13436 0.10335-0.12609-0.14676 0.1881-1.1286zm1.2051 1.2444 0.12402 0.13642-0.1633 0.1509h-0.57051l0.03927-0.28732zm-1.1762 0.28732-0.14469-0.1571 0.17363-0.13022h0.54364l-0.04134 0.28732zm1.3146-0.10129 0.13022 0.1447-0.1881 1.1327-0.08682 0.0537-0.1695-0.20464 0.17157-0.99839zm-1.4821 1.1555 1.1307 2e-3 0.1633 0.21704-0.11576 0.0724h-1.3436l-0.07235-0.0868z" style="font-feature-settings:normal;font-variant-caps:normal;font-variant-ligatures:normal;font-variant-numeric:normal"/>
   <path d="m91.201 192.88h1.3581l0.08475 0.0848-0.24185 0.19017h-1.141l-0.16123-0.21704zm0.33073 1.3105h0.27078l0.16743-1.0067h-0.27492zm-0.02687 0.33073h0.26458l-0.15916 1.0066h-0.27492z" style="font-feature-settings:normal;font-variant-caps:normal;font-variant-ligatures:normal;font-variant-numeric:normal"/>
   <path d="m93.69 192.88h1.3581l0.08475 0.0848-0.24185 0.19017h-1.141l-0.16123-0.21704zm-0.14469 0.0868 0.17363 0.21704-0.17363 1.0129-0.13436 0.10335-0.12609-0.14676 0.1881-1.1286zm1.6185 0.0289 0.07235 0.0868-0.17363 1.0997-0.15916 0.13022-0.11576-0.13022 0.14056-1.0025zm-0.41341 1.2154 0.12402 0.13642-0.1633 0.1509h-0.57051l0.03927-0.28732zm-1.1762 0.28732-0.14469-0.1571 0.17363-0.13022h0.54364l-0.04134 0.28732zm-0.17363-0.11576 0.11576 0.1447-0.1509 0.99632-0.23978 0.19017-0.05788-0.0868 0.1881-1.1431zm0.8847 0.14056h0.1695l0.11576 0.82476-0.02894 0.1881h-0.18397l-0.10335-0.83302z" style="font-feature-settings:normal;font-variant-caps:normal;font-variant-ligatures:normal;font-variant-numeric:normal"/>
   <path d="m96.034 192.96 0.17363 0.21704-0.17363 1.0129-0.13436 0.10335-0.12609-0.14676 0.1881-1.1286zm1.6185 0.0289 0.07235 0.0868-0.17363 1.0997-0.15916 0.13022-0.11576-0.13022 0.14056-1.0025zm-1.7632 1.387 0.11576 0.1447-0.1509 0.99632-0.23978 0.19017-0.05788-0.0868 0.1881-1.1431zm1.4883 0.0145 0.13022 0.1447-0.1881 1.1327-0.08682 0.0537-0.1695-0.20464 0.17156-0.99839zm-1.4821 1.1555 1.1307 2e-3 0.1633 0.21704-0.11576 0.0724h-1.3436l-0.07235-0.0868z" style="font-feature-settings:normal;font-variant-caps:normal;font-variant-ligatures:normal;font-variant-numeric:normal"/>
   <path d="m98.667 192.88h1.3581l0.0847 0.0848-0.24185 0.19017h-1.141l-0.16123-0.21704zm0.33073 1.3105h0.27078l0.16743-1.0067h-0.27492zm-0.02687 0.33073h0.26458l-0.15916 1.0066h-0.27492z" style="font-feature-settings:normal;font-variant-caps:normal;font-variant-ligatures:normal;font-variant-numeric:normal"/>
   <path d="m101.16 192.88h1.3581l0.0847 0.0848-0.24185 0.19017h-1.141l-0.16124-0.21704zm-0.1447 0.0868 0.17364 0.21704-0.17364 1.0129-0.13436 0.10335-0.12609-0.14676 0.1881-1.1286zm1.6185 0.0289 0.0724 0.0868-0.17363 1.0997-0.15917 0.13022-0.11575-0.13022 0.14056-1.0025zm-1.7632 1.387 0.11575 0.1447-0.15089 0.99632-0.23978 0.19017-0.0579-0.0868 0.1881-1.1431zm1.4883 0.0145 0.13023 0.1447-0.1881 1.1327-0.0868 0.0537-0.1695-0.20464 0.17157-0.99839zm-1.4821 1.1555 1.1307 2e-3 0.1633 0.21704-0.11575 0.0724h-1.3436l-0.0724-0.0868z" style="font-feature-settings:normal;font-variant-caps:normal;font-variant-ligatures:normal;font-variant-numeric:normal"/>
   <path d="m103.64 192.88h1.358l0.0847 0.0848-0.24184 0.19017h-1.141l-0.16123-0.21704zm-0.1447 0.0868 0.17364 0.21704-0.17364 1.0129-0.13436 0.10335-0.12609-0.14676 0.18811-1.1286zm1.6185 0.0289 0.0724 0.0868-0.17364 1.0997-0.15916 0.13022-0.11576-0.13022 0.14056-1.0025zm-0.41341 1.2154 0.12402 0.13642-0.1633 0.1509h-0.5705l0.0393-0.28732zm-1.1762 0.28732-0.14469-0.1571 0.17363-0.13022h0.54364l-0.0413 0.28732zm-0.17363-0.11576 0.11575 0.1447-0.15089 0.99632-0.23978 0.19017-0.0579-0.0868 0.18811-1.1431zm0.8847 0.14056h0.1695l0.11575 0.82476-0.0289 0.1881h-0.18397l-0.10336-0.83302z" style="font-feature-settings:normal;font-variant-caps:normal;font-variant-ligatures:normal;font-variant-numeric:normal"/>
   <g transform="translate(-1.5596)">
    <rect x="198.88" y="176.01" width="24.025" height="10.233" rx="2.4306" ry="2.4306" style="fill:#e15a00;paint-order:normal;stroke-linecap:round;stroke-width:.46487;stroke:#3e3e3e"/>
    <g style="fill:#f2f2f2;font-feature-settings:normal;font-variant-caps:normal;font-variant-ligatures:normal;font-variant-numeric:normal" aria-label="MENU">
     <path d="m207.77 182.86v-3.5165h-1.2495l-0.73096 2.3065-0.73095-2.3065h-1.2495v3.5165h0.75565v-2.8053l0.889 2.8053h0.66675l0.89394-2.8053v2.8053z" style="fill:#f2f2f2;stroke-width:.26458"/>
     <path d="m210.94 182.86v-0.647h-1.8422v-0.83961h1.6842v-0.61242h-1.6842v-0.77047h1.8422v-0.64699h-2.6374v3.5165z" style="fill:#f2f2f2;stroke-width:.26458"/>
     <path d="m214.41 182.86v-3.5165h-0.75565v2.3805l-1.4817-2.3805h-0.84455v3.5165h0.75565v-2.3806l1.4817 2.3806z" style="fill:#f2f2f2;stroke-width:.26458"/>
     <path d="m216.43 182.91c1.0224 0 1.5409-0.47414 1.5409-1.3829v-2.183h-0.79516v2.104c0 0.61242-0.22719 0.81491-0.74577 0.81491s-0.74577-0.20249-0.74577-0.81491v-2.104h-0.79516v2.183c0 0.90875 0.51858 1.3829 1.5409 1.3829z" style="fill:#f2f2f2;stroke-width:.26458"/>
    </g>
   </g>
   <g transform="translate(-1.5596)">
    <rect x="198.88" y="162.52" width="24.025" height="10.233" rx="2.4306" ry="2.4306" style="fill:#e15a00;paint-order:normal;stroke-linecap:round;stroke-width:.46487;stroke:#3e3e3e"/>
    <g style="fill:#f2f2f2;font-feature-settings:normal;font-variant-caps:normal;font-variant-ligatures:normal;font-variant-numeric:normal" aria-label="ON/OFF">
     <path d="m203.21 169.44c1.1261 0 1.7829-0.73589 1.7829-1.8076s-0.65688-1.8076-1.7829-1.8076c-1.1261 0-1.7829 0.7359-1.7829 1.8076s0.65687 1.8076 1.7829 1.8076zm0-0.64699c-0.65688 0-0.98778-0.41487-0.98778-1.1606s0.3309-1.1606 0.98778-1.1606c0.65687 0 0.98777 0.41487 0.98777 1.1606s-0.3309 1.1606-0.98777 1.1606z" style="fill:#f2f2f2;stroke-width:.26458"/>
     <path d="m208.46 169.39v-3.5165h-0.75565v2.3806l-1.4817-2.3806h-0.84455v3.5165h0.75565v-2.3805l1.4817 2.3805z" style="fill:#f2f2f2;stroke-width:.26458"/>
     <path d="m209.4 169.39 1.294-3.5165h-0.67663l-1.294 3.5165z" style="fill:#f2f2f2;stroke-width:.26458"/>
     <path d="m212.59 169.44c1.1261 0 1.7829-0.73589 1.7829-1.8076s-0.65687-1.8076-1.7829-1.8076-1.7829 0.7359-1.7829 1.8076 0.65687 1.8076 1.7829 1.8076zm0-0.64699c-0.65687 0-0.98778-0.41487-0.98778-1.1606s0.33091-1.1606 0.98778-1.1606 0.98778 0.41487 0.98778 1.1606-0.33091 1.1606-0.98778 1.1606z" style="fill:#f2f2f2;stroke-width:.26458"/>
     <path d="m215.55 169.39v-1.4866h1.6842v-0.61243h-1.6842v-0.77046h1.8422v-0.647h-2.6374v3.5165z" style="fill:#f2f2f2;stroke-width:.26458"/>
     <path d="m218.51 169.39v-1.4866h1.6842v-0.61243h-1.6842v-0.77046h1.8422v-0.647h-2.6374v3.5165z" style="fill:#f2f2f2;stroke-width:.26458"/>
    </g>
   </g>
   <g transform="translate(-1.5596)">
    <rect x="198.88" y="189.51" width="24.025" height="10.233" rx="2.4306" ry="2.4306" style="fill:#e15a00;paint-order:normal;stroke-linecap:round;stroke-width:.46487;stroke:#3e3e3e"/>
    <g style="fill:#f2f2f2;font-feature-settings:normal;font-variant-caps:normal;font-variant-ligatures:normal;font-variant-numeric:normal" aria-label="RESET">
     <path d="m206.12 193.88c0-0.6223-0.42968-1.0174-1.2002-1.0174h-1.6743v3.5165h0.79516v-1.373h0.67663c0.31609 0 0.55809 0.079 0.55809 0.49882v0.51859c0 0.1531 0.0346 0.26176 0.079 0.3556h0.76552c-0.0296-0.084-0.0494-0.20744-0.0494-0.3556v-0.54822c0-0.38523-0.19262-0.66181-0.58279-0.74083 0.40992-0.11854 0.63217-0.41487 0.63217-0.85443zm-0.79516 0.0543c0 0.29139-0.15804 0.47907-0.49882 0.47907h-0.78529v-0.95815h0.78529c0.34078 0 0.49882 0.18274 0.49882 0.47908z" style="fill:#f2f2f2;stroke-width:.26458"/>
     <path d="m209.19 196.38v-0.647h-1.8422v-0.83961h1.6842v-0.61242h-1.6842v-0.77047h1.8422v-0.64699h-2.6374v3.5165z" style="fill:#f2f2f2;stroke-width:.26458"/>
     <path d="m210.94 196.43c1.0026 0 1.4965-0.45932 1.4965-1.1063 0-0.63711-0.41487-0.91369-1.1508-1.0224l-0.40993-0.0543c-0.4445-0.0642-0.54822-0.16299-0.54822-0.38524 0-0.2667 0.1778-0.45437 0.59267-0.45437s0.62724 0.18767 0.67169 0.55315h0.75565c0-0.6865-0.4692-1.1458-1.4076-1.1458-0.93838 0-1.4076 0.46425-1.4076 1.0964 0 0.61242 0.31115 0.86431 1.0569 0.96802l0.40993 0.0593c0.51365 0.0741 0.64206 0.21237 0.64206 0.43462 0 0.2667-0.21731 0.46426-0.68157 0.46426-0.48401 0-0.68651-0.18274-0.73589-0.60255h-0.78035c0 0.75565 0.49389 1.1952 1.4965 1.1952z" style="fill:#f2f2f2;stroke-width:.26458"/>
     <path d="m215.45 196.38v-0.647h-1.8422v-0.83961h1.6842v-0.61242h-1.6842v-0.77047h1.8422v-0.64699h-2.6374v3.5165z" style="fill:#f2f2f2;stroke-width:.26458"/>
     <path d="m217.49 196.38v-2.8695h1.047v-0.64699h-2.8843v0.64699h1.0421v2.8695z" style="fill:#f2f2f2;stroke-width:.26458"/>
    </g>
   </g>
   <g transform="translate(-21.962,2.2017)" style="fill:#e15a00;stroke-width:.46487;stroke:#3e3e3e">
    <g style="fill:#e15a00;stroke-width:.46487;stroke:#3e3e3e">
     <path d="m177.41 170.7-6.1689 6.1689v4.1126l6.1689 6.1689h2.0563v-16.45z" style="fill:#e15a00;stroke-width:.46487;stroke:#3e3e3e"/>
     <path d="m202.25 170.7 6.1689 6.1689v4.1126l-6.1689 6.1689h-2.0563v-16.45z" style="fill:#e15a00;stroke-width:.46487;stroke:#3e3e3e"/>
     <path d="m181.6 191.35 6.1689 6.1689h4.1126l6.1689-6.1689v-2.0563h-16.45z" style="fill:#e15a00;stroke-width:.46487;stroke:#3e3e3e"/>
     <path d="m181.6 166.5 6.1689-6.1689h4.1126l6.1689 6.1689v2.0563h-16.45z" style="fill:#e15a00;stroke-width:.46487;stroke:#3e3e3e"/>
    </g>
    <rect x="183.28" y="172.38" width="13.098" height="13.098" rx="2.4306" ry="2.4306" style="fill:#e15a00;paint-order:normal;stroke-linecap:round;stroke-width:.46487;stroke:#3e3e3e"/>
   </g>
   <path d="m164.2 182.39v-0.46214h-1.3159v-0.59972h1.203v-0.43744h-1.203v-0.55034h1.3159v-0.46214h-1.8838v2.5118z" style="fill:#f2f2f2;font-feature-settings:normal;font-variant-caps:normal;font-variant-ligatures:normal;font-variant-numeric:normal"/>
   <path d="m166.68 182.39v-2.5118h-0.53975v1.7004l-1.0583-1.7004h-0.60325v2.5118h0.53975v-1.7004l1.0583 1.7004z" style="fill:#f2f2f2;font-feature-settings:normal;font-variant-caps:normal;font-variant-ligatures:normal;font-variant-numeric:normal"/>
   <path d="m168.23 182.39v-2.0496h0.74788v-0.46214h-2.0602v0.46214h0.74436v2.0496z" style="fill:#f2f2f2;font-feature-settings:normal;font-variant-caps:normal;font-variant-ligatures:normal;font-variant-numeric:normal"/>
   <path d="m171.09 182.39v-0.46214h-1.3159v-0.59972h1.203v-0.43744h-1.203v-0.55034h1.3159v-0.46214h-1.8838v2.5118z" style="fill:#f2f2f2;font-feature-settings:normal;font-variant-caps:normal;font-variant-ligatures:normal;font-variant-numeric:normal"/>
   <path d="m173.42 180.6c0-0.4445-0.30692-0.72673-0.85725-0.72673h-1.1959v2.5118h0.56798v-0.98072h0.4833c0.22578 0 0.39864 0.0564 0.39864 0.35631v0.37041c0 0.10936 0.0247 0.18697 0.0564 0.254h0.54681c-0.0212-0.06-0.0353-0.14816-0.0353-0.254v-0.39158c0-0.27517-0.13758-0.47272-0.41628-0.52917 0.29281-0.0847 0.45156-0.29633 0.45156-0.6103zm-0.56797 0.0388c0 0.20814-0.11289 0.3422-0.35631 0.3422h-0.56091v-0.68439h0.56091c0.24342 0 0.35631 0.13053 0.35631 0.34219z" style="fill:#f2f2f2;font-feature-settings:normal;font-variant-caps:normal;font-variant-ligatures:normal;font-variant-numeric:normal"/>
  </g>
  <g style="fill:#3e3e3e;font-feature-settings:normal;font-variant-caps:normal;font-variant-ligatures:normal;font-variant-numeric:normal" aria-label="UTFPR Ponta Grossa">
   <path d="m67.268 217.88c0.72672 0 1.076-0.33514 1.076-0.98425v-1.5628h-0.47978v1.517c0 0.47272-0.18344 0.63853-0.59619 0.63853s-0.59267-0.16581-0.59267-0.63853v-1.517h-0.47978v1.5628c0 0.64911 0.34925 0.98425 1.0724 0.98425z" style="fill:#3e3e3e;stroke-width:.26458"/>
   <path d="m69.798 217.85v-2.1202h0.76553v-0.39159h-2.0073v0.39159h0.762v2.1202z" style="fill:#3e3e3e;stroke-width:.26458"/>
   <path d="m71.293 217.85v-1.0971h1.2382v-0.36689h-1.2382v-0.65616h1.3511v-0.39159h-1.8309v2.5118z" style="fill:#3e3e3e;stroke-width:.26458"/>
   <path d="m74.894 216.13c0-0.51506-0.34572-0.80081-0.90311-0.80081h-1.0971v2.5118h0.47978v-0.91017h0.61736c0.55739 0 0.90311-0.28222 0.90311-0.8008zm-0.47978 0c0 0.30339-0.17286 0.44097-0.49036 0.44097h-0.55033v-0.88194h0.55033c0.3175 0 0.49036 0.14111 0.49036 0.44097z" style="fill:#3e3e3e;stroke-width:.26458"/>
   <path d="m77.182 216.05c0-0.43744-0.29633-0.71614-0.83256-0.71614h-1.1677v2.5118h0.47978v-1.016h0.5715c0.24694 0 0.43392 0.0741 0.43392 0.38453v0.37747c0 0.10936 0.02469 0.18697 0.05644 0.254h0.45861c-0.02117-0.06-0.03528-0.14817-0.03528-0.254v-0.39511c0-0.27869-0.14111-0.46919-0.41275-0.52917 0.28928-0.0847 0.44803-0.29986 0.44803-0.61736zm-0.47978 0.0317c0 0.23636-0.12347 0.38806-0.4057 0.38806h-0.635v-0.77611h0.635c0.28222 0 0.4057 0.15169 0.4057 0.38805z" style="fill:#3e3e3e;stroke-width:.26458"/>
   <path d="m80.386 216.13c0-0.51506-0.34572-0.80081-0.90311-0.80081h-1.0971v2.5118h0.47978v-0.91017h0.61736c0.55739 0 0.90311-0.28222 0.90311-0.8008zm-0.47978 0c0 0.30339-0.17286 0.44097-0.49036 0.44097h-0.55033v-0.88194h0.55033c0.3175 0 0.49036 0.14111 0.49036 0.44097z" style="fill:#3e3e3e;stroke-width:.26458"/>
   <path d="m81.429 217.88c0.5962 0 0.92781-0.37042 0.92781-0.94545 0-0.5715-0.33161-0.94544-0.92781-0.94544-0.59267 0-0.92428 0.37394-0.92428 0.94544 0 0.57503 0.33161 0.94545 0.92428 0.94545zm0-0.34572c-0.29986 0-0.46919-0.19756-0.46919-0.59973 0-0.40216 0.16933-0.59972 0.46919-0.59972 0.30339 0 0.47272 0.19756 0.47272 0.59972 0 0.40217-0.16933 0.59973-0.47272 0.59973z" style="fill:#3e3e3e;stroke-width:.26458"/>
   <path d="m84.231 217.85v-1.203c0-0.44097-0.20814-0.65264-0.62442-0.65264-0.29633 0-0.45861 0.13758-0.55739 0.33161v-0.29633h-0.43392v1.8203h0.45508v-1.016c0-0.29633 0.15522-0.46919 0.39511-0.46919 0.22225 0 0.31044 0.12347 0.31044 0.37041v1.1148z" style="fill:#3e3e3e;stroke-width:.26458"/>
   <path d="m85.236 217.86c0.08114 0 0.22578-0.0106 0.29986-0.0176v-0.30692l-0.1905 4e-3c-0.14464 0-0.20461-0.0494-0.20461-0.1905v-1.0019h0.39511v-0.32455h-0.39511v-0.55034h-0.45508v0.55034h-0.28575v0.32455h0.28575v0.98425c0 0.40217 0.13758 0.52917 0.55033 0.52917z" style="fill:#3e3e3e;stroke-width:.26458"/>
   <path d="m86.377 217.88c0.31044 0 0.49389-0.10936 0.59619-0.3175 0 0.14111 0.0247 0.21519 0.07761 0.28222h0.41275c-0.03528-0.06-0.05644-0.21872-0.05644-0.46567v-0.77963c0-0.37042-0.23283-0.61031-0.79375-0.61031s-0.79375 0.23989-0.79375 0.61031h0.45156c0.01764-0.19403 0.13406-0.28575 0.34572-0.28575 0.22578 0 0.33514 0.10583 0.33514 0.28575 0 0.0953-0.05292 0.14463-0.23636 0.16227l-0.37042 0.0317c-0.45861 0.0353-0.62442 0.25753-0.62442 0.53623 0 0.33513 0.22931 0.55033 0.65617 0.55033zm0.13406-0.31045c-0.23283 0-0.33514-0.10936-0.33514-0.27163 0-0.13053 0.09172-0.22578 0.32103-0.24695l0.2152-0.0176c0.12347-0.0106 0.20814-0.0317 0.23989-0.0705v0.127c0 0.26458-0.15875 0.47977-0.44097 0.47977z" style="fill:#3e3e3e;stroke-width:.26458"/>
   <path d="m89.752 217.88c0.45156 0 0.70203-0.16581 0.81139-0.45861l0.04233 0.42333h0.34925v-1.3688h-1.0901v0.32809h0.635c-0.02822 0.4198-0.23283 0.68439-0.70203 0.68439-0.50447 0-0.76553-0.32103-0.76553-0.89959 0-0.57855 0.26106-0.89958 0.76553-0.89958 0.40569 0 0.63853 0.21519 0.70203 0.48683h0.43039c0-0.45155-0.39511-0.87841-1.1324-0.87841-0.79728 0-1.2453 0.52563-1.2453 1.2912s0.42333 1.2912 1.1994 1.2912z" style="fill:#3e3e3e;stroke-width:.26458"/>
   <path d="m91.738 217.85v-0.84667c0-0.37041 0.18697-0.57855 0.46567-0.57855l0.18697 4e-3v-0.39864c-0.04233-0.0106-0.11642-0.0247-0.16581-0.0247-0.254 0-0.41275 0.10936-0.508 0.43039v-0.40569h-0.43392v1.8203z" style="fill:#3e3e3e;stroke-width:.26458"/>
   <path d="m93.418 217.88c0.59619 0 0.9278-0.37042 0.9278-0.94545 0-0.5715-0.33161-0.94544-0.9278-0.94544-0.59267 0-0.92428 0.37394-0.92428 0.94544 0 0.57503 0.33161 0.94545 0.92428 0.94545zm0-0.34572c-0.29986 0-0.4692-0.19756-0.4692-0.59973 0-0.40216 0.16933-0.59972 0.4692-0.59972 0.30339 0 0.47272 0.19756 0.47272 0.59972 0 0.40217-0.16933 0.59973-0.47272 0.59973z" style="fill:#3e3e3e;stroke-width:.26458"/>
   <path d="m95.359 217.88c0.58914 0 0.82903-0.25047 0.82903-0.57503 0-0.34925-0.23636-0.4833-0.63853-0.53975l-0.31044-0.0459c-0.13053-0.0176-0.20108-0.0706-0.20108-0.1905 0-0.14464 0.08819-0.23989 0.3175-0.23989 0.26811 0 0.32456 0.13053 0.34219 0.28222h0.44097c0-0.33161-0.22225-0.58208-0.77964-0.58208-0.55386 0-0.77611 0.25047-0.77611 0.57503 0 0.31044 0.16228 0.45155 0.58208 0.51153l0.31397 0.0459c0.15522 0.0247 0.254 0.0882 0.254 0.21166 0 0.13406-0.09525 0.24695-0.36689 0.24695-0.28222 0-0.37042-0.11642-0.39158-0.31045h-0.44097c0 0.35984 0.23989 0.61031 0.8255 0.61031z" style="fill:#3e3e3e;stroke-width:.26458"/>
   <path d="m97.206 217.88c0.58914 0 0.82903-0.25047 0.82903-0.57503 0-0.34925-0.23636-0.4833-0.63853-0.53975l-0.31044-0.0459c-0.13053-0.0176-0.20108-0.0706-0.20108-0.1905 0-0.14464 0.08819-0.23989 0.3175-0.23989 0.26811 0 0.32456 0.13053 0.34219 0.28222h0.44097c0-0.33161-0.22225-0.58208-0.77964-0.58208-0.55386 0-0.77611 0.25047-0.77611 0.57503 0 0.31044 0.16228 0.45155 0.58208 0.51153l0.31397 0.0459c0.15522 0.0247 0.254 0.0882 0.254 0.21166 0 0.13406-0.09525 0.24695-0.36689 0.24695-0.28222 0-0.37042-0.11642-0.39158-0.31045h-0.44097c0 0.35984 0.23989 0.61031 0.8255 0.61031z" style="fill:#3e3e3e;stroke-width:.26458"/>
   <path d="m98.883 217.88c0.31044 0 0.49389-0.10936 0.5962-0.3175 0 0.14111 0.02469 0.21519 0.07761 0.28222h0.41275c-0.03528-0.06-0.05644-0.21872-0.05644-0.46567v-0.77963c0-0.37042-0.23283-0.61031-0.79375-0.61031s-0.79375 0.23989-0.79375 0.61031h0.45156c0.01764-0.19403 0.13406-0.28575 0.34572-0.28575 0.22578 0 0.33514 0.10583 0.33514 0.28575 0 0.0953-0.05292 0.14463-0.23636 0.16227l-0.37042 0.0317c-0.45861 0.0353-0.62442 0.25753-0.62442 0.53623 0 0.33513 0.22931 0.55033 0.65617 0.55033zm0.13406-0.31045c-0.23283 0-0.33514-0.10936-0.33514-0.27163 0-0.13053 0.09172-0.22578 0.32103-0.24695l0.21519-0.0176c0.12347-0.0106 0.20814-0.0317 0.23989-0.0705v0.127c0 0.26458-0.15875 0.47977-0.44097 0.47977z" style="fill:#3e3e3e;stroke-width:.26458"/>
  </g>
 </g>
 <g transform="matrix(.93141 0 0 .93141 -31.118 -90.177)">
  <rect x="184.47" y="214.65" width="45.357" height="11.339" rx="2.4306" ry="2.4306" style="fill:#fff;paint-order:normal;stroke-linecap:round;stroke-width:.26458;stroke:#000"/>
  <g transform="translate(.4245 4.9551e-6)">
   <g transform="matrix(.10772 0 0 .10772 198.45 207.83)">
    <rect x="106.61" y="85.918" width="2.2127" height="60.011" ry="0" style="stroke-linejoin:round;stroke-width:.20341;stroke:#0e0101"/>
    <rect x="110.51" y="85.918" width="2.2127" height="60.011" ry="0" style="stroke-linejoin:round;stroke-width:.20341;stroke:#0e0101"/>
    <rect x="118.3" y="85.911" width="2.2228" height="60.007" ry="0" style="stroke-linejoin:round;stroke-width:.19224;stroke:#0e0101"/>
    <rect x="122.26" y="85.936" width="4.4247" height="59.957" ry="0" style="stroke-linejoin:round;stroke-width:.27111;stroke:#0e0101"/>
    <rect x="129.96" y="85.9" width="1.5013" height="60.029" ry="0" style="stroke-linejoin:round;stroke-width:.15802;stroke:#0e0101"/>
    <rect x="137.85" y="85.936" width="4.4247" height="59.957" ry="0" style="stroke-linejoin:round;stroke-width:.27111;stroke:#0e0101"/>
    <rect x="145.62" y="85.929" width="3.6866" height="59.972" ry="0" style="stroke-linejoin:round;stroke-width:.2475;stroke:#0e0101"/>
    <rect x="153.35" y="85.9" width="1.5013" height="60.029" ry="0" style="stroke-linejoin:round;stroke-width:.15802;stroke:#0e0101"/>
    <rect x="157.24" y="85.9" width="1.5013" height="60.029" ry="0" style="stroke-linejoin:round;stroke-width:.15802;stroke:#0e0101"/>
    <rect x="161.14" y="85.9" width="1.5013" height="60.029" ry="0" style="stroke-linejoin:round;stroke-width:.15802;stroke:#0e0101"/>
    <rect x="169.04" y="85.943" width="5.1658" height="59.943" ry="0" style="stroke-linejoin:round;stroke-width:.2929;stroke:#0e0101"/>
    <rect x="179.85" y="85.911" width="2.2228" height="60.007" ry="0" style="stroke-linejoin:round;stroke-width:.19224;stroke:#0e0101"/>
    <rect x="183.75" y="85.911" width="2.2228" height="60.007" ry="0" style="stroke-linejoin:round;stroke-width:.19224;stroke:#0e0101"/>
    <rect x="189.68" y="85.943" width="5.1658" height="59.943" ry="0" style="stroke-linejoin:round;stroke-width:.2929;stroke:#0e0101"/>
    <rect x="203.19" y="85.9" width="1.5013" height="60.029" ry="0" style="stroke-linejoin:round;stroke-width:.15802;stroke:#0e0101"/>
    <rect x="207.09" y="85.906" width="1.499" height="60.023" ry="0" style="stroke-linejoin:round;stroke-width:.16745;stroke:#0e0101"/>
    <rect x="210.98" y="85.906" width="1.499" height="60.023" ry="0" style="stroke-linejoin:round;stroke-width:.16745;stroke:#0e0101"/>
    <rect x="218.78" y="85.9" width="1.5013" height="60.029" ry="0" style="stroke-linejoin:round;stroke-width:.15802;stroke:#0e0101"/>
    <rect x="222.76" y="85.936" width="4.4247" height="59.957" ry="0" style="stroke-linejoin:round;stroke-width:.27111;stroke:#0e0101"/>
    <rect x="230.56" y="85.936" width="4.4247" height="59.957" ry="0" style="stroke-linejoin:round;stroke-width:.27111;stroke:#0e0101"/>
    <rect x="237.49" y="85.872" width="1.4331" height="60.085" ry="0" style="stroke-linejoin:round;stroke-width:.15445;stroke:#0e0101"/>
    <rect x="241.39" y="85.872" width="1.4331" height="60.085" ry="0" style="stroke-linejoin:round;stroke-width:.15445;stroke:#0e0101"/>
    <rect x="245.33" y="85.936" width="4.4247" height="59.957" ry="0" style="stroke-linejoin:round;stroke-width:.27111;stroke:#0e0101"/>
   </g>
   <g transform="matrix(.12166 0 0 .12166 188.07 217.2)" style="fill:#1a1a1a">
    <g transform="translate(-38.461,-89.128)" style="fill:#1a1a1a">
     <path d="m65.669 89.128-27.208 24.645 13.736 6.112z" style="fill:#1a1a1a"/>
     <path transform="scale(.26458)" d="m215.7 418.26-16.943 38.682-9.4707-4.2148-33.979 77.566 102.83-93.146z" style="fill:#1a1a1a"/>
    </g>
    <g transform="matrix(1.0145,0,0,1.0145,-24.859,-262.86)" style="fill:#1a1a1a;stroke-width:1.5509">
     <path d="m79.454 279.77c0-4.5085-2.9528-6.731-7.3342-6.731h-9.0805v22.606h1.6828v-9.1758h7.3978c4.3815 0 7.3342-2.2225 7.3342-6.6992zm-1.6828 0c0 3.4925-2.032 5.3658-5.7785 5.3658h-7.2708v-10.763h7.2708c3.7465 0 5.7785 1.8732 5.7785 5.3975z" style="fill:#1a1a1a"/>
     <path d="m99.488 279.23c0-3.8418-2.3495-6.1912-6.6992-6.1912h-9.7155v22.606h1.6828v-10.128h7.8105c2.8575 0 4.9212 1.0478 4.9212 4.1592v3.683c0 0.98425 0.22225 1.6828 0.508 2.286h1.4922c-0.1905-0.53975-0.3175-1.3335-0.3175-2.286v-3.7148c0-2.5082-1.3335-4.1275-3.6512-4.7308 2.6035-0.762 3.9688-2.7622 3.9688-5.6832zm-1.6828 0.0635c0 2.8575-1.4288 4.8895-5.1118 4.8895h-7.9375v-9.8108h7.9375c3.683 0 5.1118 2.032 5.1118 4.9212z" style="fill:#1a1a1a"/>
     <path d="m113.1 295.96c7.0485 0 10.446-4.7308 10.446-11.62s-3.3972-11.62-10.446-11.62c-7.0168 0-10.414 4.7308-10.414 11.62s3.3972 11.62 10.414 11.62zm0-1.397c-5.715 0-8.7312-3.7148-8.7312-10.224s3.0162-10.224 8.7312-10.224c5.7468 0 8.763 3.7148 8.763 10.224s-3.0162 10.224-8.763 10.224z" style="fill:#1a1a1a"/>
     <path d="m134.98 295.64v-21.209h7.3978v-1.397h-16.478v1.397h7.3978v21.209z" style="fill:#1a1a1a"/>
     <path d="m154.99 295.96c6.477 0 9.4298-3.0162 9.4298-8.8582v-14.065h-3.5242v13.748c0 4.6355-1.8098 6.2865-5.9055 6.2865s-5.9055-1.651-5.9055-6.2865v-13.748h-3.5242v14.065c0 5.842 2.9528 8.8582 9.4298 8.8582z" style="fill:#1a1a1a"/>
     <path d="m177.47 295.64v-19.717h7.0485v-2.8892h-17.59v2.8892h7.0168v19.717z" style="fill:#1a1a1a"/>
    </g>
   </g>
  </g>
 </g>
 <g id="Q0estado" class="estado-logico" transform="translate(-50.268 -105.98)">
  <g id="Q0off" transform="matrix(.8843 0 0 .8843 52.761 58.488)">
   <rect x="27.809" y="187.9" width="12.843" height="12.843" rx="3.9516" ry="3.9516" style="fill:#f00;paint-order:normal;stroke-linecap:round;stroke-width:.52917;stroke:#1a1a1a"/>
   <g style="font-feature-settings:normal;font-variant-caps:normal;font-variant-ligatures:normal;font-variant-numeric:normal" aria-label="0">
    <path d="m34.226 197.94c2.0052 0 2.8942-1.373 2.8942-3.6153s-0.889-3.6153-2.8942-3.6153-2.8843 1.373-2.8843 3.6153c0 2.2422 0.87912 3.6153 2.8843 3.6153zm0-1.0372c-1.047 0-1.6101-0.77047-1.6101-2.5781 0-1.7978 0.56303-2.5781 1.6101-2.5781 1.047 0 1.62 0.78034 1.62 2.5781 0 1.8076-0.57291 2.5781-1.62 2.5781z" style="fill:#fff;stroke-width:.26458"/>
   </g>
  </g>
  <g id="Q0on" transform="matrix(.8843 0 0 .8843 52.761 72.526)">
   <rect x="27.809" y="172.03" width="12.843" height="12.843" rx="3.9516" ry="3.9516" style="fill:#008000;paint-order:normal;stroke-linecap:round;stroke-width:.52917;stroke:#1a1a1a"/>
   <g transform="translate(-.73899 -6.364e-6)" style="font-feature-settings:normal;font-variant-caps:normal;font-variant-ligatures:normal;font-variant-numeric:normal" aria-label="1">
    <path d="m35.687 181.97v-7.033h-1.0174c-0.25682 0.90876-0.83961 1.3335-1.8965 1.3928v0.93839h0.28646c0.36548 0 1.0866-0.10866 1.3533-0.34573v5.0476z" style="fill:#fff;stroke-width:.26458"/>
   </g>
  </g>
 </g>
 <g id="Q1estado" class="estado-logico" transform="translate(-50.268 -105.98)">
  <g id="Q1off" transform="matrix(.8843 0 0 .8843 93.331 58.488)">
   <rect x="27.809" y="187.9" width="12.843" height="12.843" rx="3.9516" ry="3.9516" style="fill:#f00;paint-order:normal;stroke-linecap:round;stroke-width:.52917;stroke:#1a1a1a"/>
   <g style="font-feature-settings:normal;font-variant-caps:normal;font-variant-ligatures:normal;font-variant-numeric:normal" aria-label="0">
    <path d="m34.226 197.94c2.0052 0 2.8942-1.373 2.8942-3.6153s-0.889-3.6153-2.8942-3.6153-2.8843 1.373-2.8843 3.6153c0 2.2422 0.87912 3.6153 2.8843 3.6153zm0-1.0372c-1.047 0-1.6101-0.77047-1.6101-2.5781 0-1.7978 0.56303-2.5781 1.6101-2.5781 1.047 0 1.62 0.78034 1.62 2.5781 0 1.8076-0.57291 2.5781-1.62 2.5781z" style="fill:#fff;stroke-width:.26458"/>
   </g>
  </g>
  <g id="Q1on" transform="matrix(.8843 0 0 .8843 93.331 72.526)">
   <rect x="27.809" y="172.03" width="12.843" height="12.843" rx="3.9516" ry="3.9516" style="fill:#008000;paint-order:normal;stroke-linecap:round;stroke-width:.52917;stroke:#1a1a1a"/>
   <g transform="translate(-.73899 -6.364e-6)" style="font-feature-settings:normal;font-variant-caps:normal;font-variant-ligatures:normal;font-variant-numeric:normal" aria-label="1">
    <path d="m35.687 181.97v-7.033h-1.0174c-0.25682 0.90876-0.83961 1.3335-1.8965 1.3928v0.93839h0.28646c0.36548 0 1.0866-0.10866 1.3533-0.34573v5.0476z" style="fill:#fff;stroke-width:.26458"/>
   </g>
  </g>
 </g>
 <g id="Q2estado" class="estado-logico" transform="translate(-50.267 -105.98)">
  <g id="Q2off" transform="matrix(.8843 0 0 .8843 133.9 58.488)">
   <rect x="27.809" y="187.9" width="12.843" height="12.843" rx="3.9516" ry="3.9516" style="fill:#f00;paint-order:normal;stroke-linecap:round;stroke-width:.52917;stroke:#1a1a1a"/>
   <g style="font-feature-settings:normal;font-variant-caps:normal;font-variant-ligatures:normal;font-variant-numeric:normal" aria-label="0">
    <path d="m34.226 197.94c2.0052 0 2.8942-1.373 2.8942-3.6153s-0.889-3.6153-2.8942-3.6153-2.8843 1.373-2.8843 3.6153c0 2.2422 0.87912 3.6153 2.8843 3.6153zm0-1.0372c-1.047 0-1.6101-0.77047-1.6101-2.5781 0-1.7978 0.56303-2.5781 1.6101-2.5781 1.047 0 1.62 0.78034 1.62 2.5781 0 1.8076-0.57291 2.5781-1.62 2.5781z" style="fill:#fff;stroke-width:.26458"/>
   </g>
  </g>
  <g id="Q2on" transform="matrix(.8843 0 0 .8843 133.9 72.526)">
   <rect x="27.809" y="172.03" width="12.843" height="12.843" rx="3.9516" ry="3.9516" style="fill:#008000;paint-order:normal;stroke-linecap:round;stroke-width:.52917;stroke:#1a1a1a"/>
   <g transform="translate(-.73899 -6.364e-6)" style="font-feature-settings:normal;font-variant-caps:normal;font-variant-ligatures:normal;font-variant-numeric:normal" aria-label="1">
    <path d="m35.687 181.97v-7.033h-1.0174c-0.25682 0.90876-0.83961 1.3335-1.8965 1.3928v0.93839h0.28646c0.36548 0 1.0866-0.10866 1.3533-0.34573v5.0476z" style="fill:#fff;stroke-width:.26458"/>
   </g>
  </g>
 </g>
 <g id="Q3estado" class="estado-logico" transform="translate(-50.268 -105.98)">
  <g id="Q3off" transform="matrix(.8843 0 0 .8843 174.47 58.488)">
   <rect x="27.809" y="187.9" width="12.843" height="12.843" rx="3.9516" ry="3.9516" style="fill:#f00;paint-order:normal;stroke-linecap:round;stroke-width:.52917;stroke:#1a1a1a"/>
   <g style="font-feature-settings:normal;font-variant-caps:normal;font-variant-ligatures:normal;font-variant-numeric:normal" aria-label="0">
    <path d="m34.226 197.94c2.0052 0 2.8942-1.373 2.8942-3.6153s-0.889-3.6153-2.8942-3.6153-2.8843 1.373-2.8843 3.6153c0 2.2422 0.87912 3.6153 2.8843 3.6153zm0-1.0372c-1.047 0-1.6101-0.77047-1.6101-2.5781 0-1.7978 0.56303-2.5781 1.6101-2.5781 1.047 0 1.62 0.78034 1.62 2.5781 0 1.8076-0.57291 2.5781-1.62 2.5781z" style="fill:#fff;stroke-width:.26458"/>
   </g>
  </g>
  <g id="Q3on" transform="matrix(.8843 0 0 .8843 174.47 72.526)">
   <rect x="27.809" y="172.03" width="12.843" height="12.843" rx="3.9516" ry="3.9516" style="fill:#008000;paint-order:normal;stroke-linecap:round;stroke-width:.52917;stroke:#1a1a1a"/>
   <g transform="translate(-.73899 -6.364e-6)" style="font-feature-settings:normal;font-variant-caps:normal;font-variant-ligatures:normal;font-variant-numeric:normal" aria-label="1">
    <path d="m35.687 181.97v-7.033h-1.0174c-0.25682 0.90876-0.83961 1.3335-1.8965 1.3928v0.93839h0.28646c0.36548 0 1.0866-0.10866 1.3533-0.34573v5.0476z" style="fill:#fff;stroke-width:.26458"/>
   </g>
  </g>
 </g>
 <g id="Q0-lamp" class="lampada" transform="translate(-.9995 -7.0756)">
  <g id="Q0lamp-off" transform="matrix(.034863 0 0 .034863 29.323 148.55)">
   <circle transform="rotate(-3.0318)" cx="336.89" cy="607.83" r="234.94" style="fill:#ccc;stroke-width:18.75;stroke:#333"/>
   <path d="m281.91 474.49c-39.135 36.344-10.627 130.74-48.545 93.13-37.917-37.613-38.164-98.843-0.55089-136.76 37.613-37.918 119.39-51.056 136.76-0.55102 20.492 59.576-59.056 17.613-87.665 44.181z" style="fill:#fff"/>
  </g>
  <g id="Q0lamp-on" transform="translate(-49.268,-98.903)">
   <circle cx="91.441" cy="267.99" r="11.28" style="fill:#0f0;filter:url(#filter8314);opacity:.651;paint-order:normal"/>
   <g transform="matrix(.034863 0 0 .034863 78.591 247.45)">
    <circle transform="rotate(-3.0318)" cx="336.89" cy="607.83" r="234.94" style="fill:#0f0;stroke-width:18.75;stroke:#333"/>
    <path d="m281.91 474.49c-39.135 36.344-10.627 130.74-48.545 93.13-37.917-37.613-38.164-98.843-0.55089-136.76 37.613-37.918 119.39-51.056 136.76-0.55102 20.492 59.576-59.056 17.613-87.665 44.181z" style="fill:#fff"/>
   </g>
  </g>
 </g>
 <g id="Q1-lamp" class="lampada" transform="translate(-.9995 -7.0756)">
  <g id="Q1lamp-off" transform="matrix(.034863 0 0 .034863 70.122 148.55)">
   <circle transform="rotate(-3.0318)" cx="336.89" cy="607.83" r="234.94" style="fill:#ccc;stroke-width:18.75;stroke:#333"/>
   <path d="m281.91 474.49c-39.135 36.344-10.627 130.74-48.545 93.13-37.917-37.613-38.164-98.843-0.55089-136.76 37.613-37.918 119.39-51.056 136.76-0.55102 20.492 59.576-59.056 17.613-87.665 44.181z" style="fill:#fff"/>
  </g>
  <g id="Q1lamp-on" transform="translate(-49.268,-98.903)">
   <circle cx="132.24" cy="267.99" r="11.28" style="fill:#ff0;filter:url(#filter8314);opacity:.651;paint-order:normal"/>
   <g transform="matrix(.034863 0 0 .034863 119.39 247.45)">
    <circle transform="rotate(-3.0318)" cx="336.89" cy="607.83" r="234.94" style="fill:#ff0;stroke-width:18.75;stroke:#333"/>
    <path d="m281.91 474.49c-39.135 36.344-10.627 130.74-48.545 93.13-37.917-37.613-38.164-98.843-0.55089-136.76 37.613-37.918 119.39-51.056 136.76-0.55102 20.492 59.576-59.056 17.613-87.665 44.181z" style="fill:#fff"/>
   </g>
  </g>
 </g>
 <g id="Q2-lamp" class="lampada" transform="translate(-.9995 -7.0756)">
  <g id="Q2lamp-off" transform="matrix(.034863 0 0 .034863 110.93 148.55)">
   <circle transform="rotate(-3.0318)" cx="336.89" cy="607.83" r="234.94" style="fill:#ccc;stroke-width:18.75;stroke:#333"/>
   <path d="m281.91 474.49c-39.135 36.344-10.627 130.74-48.545 93.13-37.917-37.613-38.164-98.843-0.55089-136.76 37.613-37.918 119.39-51.056 136.76-0.55102 20.492 59.576-59.056 17.613-87.665 44.181z" style="fill:#fff"/>
  </g>
  <g id="Q2lamp-on" transform="translate(-49.268,-98.903)">
   <circle cx="173.05" cy="267.99" r="11.28" style="fill:#f00;filter:url(#filter8314);opacity:.651;paint-order:normal"/>
   <g transform="matrix(.034863 0 0 .034863 160.2 247.45)">
    <circle transform="rotate(-3.0318)" cx="336.89" cy="607.83" r="234.94" style="fill:#f00;stroke-width:18.75;stroke:#333"/>
    <path d="m281.91 474.49c-39.135 36.344-10.627 130.74-48.545 93.13-37.917-37.613-38.164-98.843-0.55089-136.76 37.613-37.918 119.39-51.056 136.76-0.55102 20.492 59.576-59.056 17.613-87.665 44.181z" style="fill:#fff"/>
   </g>
  </g>
 </g>
 <g id="Q3-lamp" class="lampada" transform="translate(-.9995 -7.0756)">
  <g id="Q3lamp-off" transform="matrix(.034863 0 0 .034863 151.73 148.55)">
   <circle transform="rotate(-3.0318)" cx="336.89" cy="607.83" r="234.94" style="fill:#ccc;stroke-width:18.75;stroke:#333"/>
   <path d="m281.91 474.49c-39.135 36.344-10.627 130.74-48.545 93.13-37.917-37.613-38.164-98.843-0.55089-136.76 37.613-37.918 119.39-51.056 136.76-0.55102 20.492 59.576-59.056 17.613-87.665 44.181z" style="fill:#fff"/>
  </g>
  <g id="Q3lamp-on" transform="translate(-49.268,-98.903)">
   <circle cx="213.85" cy="267.99" r="11.28" style="fill:#0ff;filter:url(#filter8314);opacity:.651;paint-order:normal"/>
   <g transform="matrix(.034863 0 0 .034863 201 247.45)">
    <circle transform="rotate(-3.0318)" cx="336.89" cy="607.83" r="234.94" style="fill:#0ff;stroke-width:18.75;stroke:#333"/>
    <path d="m281.91 474.49c-39.135 36.344-10.627 130.74-48.545 93.13-37.917-37.613-38.164-98.843-0.55089-136.76 37.613-37.918 119.39-51.056 136.76-0.55102 20.492 59.576-59.056 17.613-87.665 44.181z" style="fill:#fff"/>
   </g>
  </g>
 </g>
 <g id="I0estado" class="estado-logico" transform="translate(-50.268 -102.35)">
  <g id="I0off" transform="matrix(.8843 0 0 .8843 85.889 -55.877)">
   <rect x="27.809" y="187.9" width="12.843" height="12.843" rx="3.9516" ry="3.9516" style="fill:#f00;paint-order:normal;stroke-linecap:round;stroke-width:.52917;stroke:#1a1a1a"/>
   <g style="font-feature-settings:normal;font-variant-caps:normal;font-variant-ligatures:normal;font-variant-numeric:normal" aria-label="0">
    <path d="m34.226 197.94c2.0052 0 2.8942-1.373 2.8942-3.6153s-0.889-3.6153-2.8942-3.6153-2.8843 1.373-2.8843 3.6153c0 2.2422 0.87912 3.6153 2.8843 3.6153zm0-1.0372c-1.047 0-1.6101-0.77047-1.6101-2.5781 0-1.7978 0.56303-2.5781 1.6101-2.5781 1.047 0 1.62 0.78034 1.62 2.5781 0 1.8076-0.57291 2.5781-1.62 2.5781z" style="fill:#fff;stroke-width:.26458"/>
   </g>
  </g>
  <g id="I0on" transform="matrix(.8843 0 0 .8843 85.889 -41.838)">
   <rect x="27.809" y="172.03" width="12.843" height="12.843" rx="3.9516" ry="3.9516" style="fill:#008000;paint-order:normal;stroke-linecap:round;stroke-width:.52917;stroke:#1a1a1a"/>
   <g transform="translate(-.73899 -6.364e-6)" style="font-feature-settings:normal;font-variant-caps:normal;font-variant-ligatures:normal;font-variant-numeric:normal" aria-label="1">
    <path d="m35.687 181.97v-7.033h-1.0174c-0.25682 0.90876-0.83961 1.3335-1.8965 1.3928v0.93839h0.28646c0.36548 0 1.0866-0.10866 1.3533-0.34573v5.0476z" style="fill:#fff;stroke-width:.26458"/>
   </g>
  </g>
 </g>
 <g id="I1estado" class="estado-logico" transform="translate(-50.089 -102.35)">
  <g id="I1off" transform="matrix(.8843 0 0 .8843 99.666 -55.877)">
   <rect x="27.809" y="187.9" width="12.843" height="12.843" rx="3.9516" ry="3.9516" style="fill:#f00;paint-order:normal;stroke-linecap:round;stroke-width:.52917;stroke:#1a1a1a"/>
   <g style="font-feature-settings:normal;font-variant-caps:normal;font-variant-ligatures:normal;font-variant-numeric:normal" aria-label="0">
    <path d="m34.226 197.94c2.0052 0 2.8942-1.373 2.8942-3.6153s-0.889-3.6153-2.8942-3.6153-2.8843 1.373-2.8843 3.6153c0 2.2422 0.87912 3.6153 2.8843 3.6153zm0-1.0372c-1.047 0-1.6101-0.77047-1.6101-2.5781 0-1.7978 0.56303-2.5781 1.6101-2.5781 1.047 0 1.62 0.78034 1.62 2.5781 0 1.8076-0.57291 2.5781-1.62 2.5781z" style="fill:#fff;stroke-width:.26458"/>
   </g>
  </g>
  <g id="I1on" transform="matrix(.8843 0 0 .8843 99.666 -41.838)">
   <rect x="27.809" y="172.03" width="12.843" height="12.843" rx="3.9516" ry="3.9516" style="fill:#008000;paint-order:normal;stroke-linecap:round;stroke-width:.52917;stroke:#1a1a1a"/>
   <g transform="translate(-.73899 -6.364e-6)" style="font-feature-settings:normal;font-variant-caps:normal;font-variant-ligatures:normal;font-variant-numeric:normal" aria-label="1">
    <path d="m35.687 181.97v-7.033h-1.0174c-0.25682 0.90876-0.83961 1.3335-1.8965 1.3928v0.93839h0.28646c0.36548 0 1.0866-0.10866 1.3533-0.34573v5.0476z" style="fill:#fff;stroke-width:.26458"/>
   </g>
  </g>
 </g>
 <g id="I2estado" class="estado-logico" transform="translate(-50.537 -102.35)">
  <g id="I2off" transform="matrix(.8843 0 0 .8843 114.07 -55.877)">
   <rect x="27.809" y="187.9" width="12.843" height="12.843" rx="3.9516" ry="3.9516" style="fill:#f00;paint-order:normal;stroke-linecap:round;stroke-width:.52917;stroke:#1a1a1a"/>
   <g style="font-feature-settings:normal;font-variant-caps:normal;font-variant-ligatures:normal;font-variant-numeric:normal" aria-label="0">
    <path d="m34.226 197.94c2.0052 0 2.8942-1.373 2.8942-3.6153s-0.889-3.6153-2.8942-3.6153-2.8843 1.373-2.8843 3.6153c0 2.2422 0.87912 3.6153 2.8843 3.6153zm0-1.0372c-1.047 0-1.6101-0.77047-1.6101-2.5781 0-1.7978 0.56303-2.5781 1.6101-2.5781 1.047 0 1.62 0.78034 1.62 2.5781 0 1.8076-0.57291 2.5781-1.62 2.5781z" style="fill:#fff;stroke-width:.26458"/>
   </g>
  </g>
  <g id="I2on" transform="matrix(.8843 0 0 .8843 114.07 -41.838)">
   <rect x="27.809" y="172.03" width="12.843" height="12.843" rx="3.9516" ry="3.9516" style="fill:#008000;paint-order:normal;stroke-linecap:round;stroke-width:.52917;stroke:#1a1a1a"/>
   <g transform="translate(-.73899 -6.364e-6)" style="font-feature-settings:normal;font-variant-caps:normal;font-variant-ligatures:normal;font-variant-numeric:normal" aria-label="1">
    <path d="m35.687 181.97v-7.033h-1.0174c-0.25682 0.90876-0.83961 1.3335-1.8965 1.3928v0.93839h0.28646c0.36548 0 1.0866-0.10866 1.3533-0.34573v5.0476z" style="fill:#fff;stroke-width:.26458"/>
   </g>
  </g>
 </g>
 <g id="I3estado" class="estado-logico" transform="translate(-50.671 -102.35)">
  <g id="I3off" transform="matrix(.8843 0 0 .8843 128.16 -55.877)">
   <rect x="27.809" y="187.9" width="12.843" height="12.843" rx="3.9516" ry="3.9516" style="fill:#f00;paint-order:normal;stroke-linecap:round;stroke-width:.52917;stroke:#1a1a1a"/>
   <g style="font-feature-settings:normal;font-variant-caps:normal;font-variant-ligatures:normal;font-variant-numeric:normal" aria-label="0">
    <path d="m34.226 197.94c2.0052 0 2.8942-1.373 2.8942-3.6153s-0.889-3.6153-2.8942-3.6153-2.8843 1.373-2.8843 3.6153c0 2.2422 0.87912 3.6153 2.8843 3.6153zm0-1.0372c-1.047 0-1.6101-0.77047-1.6101-2.5781 0-1.7978 0.56303-2.5781 1.6101-2.5781 1.047 0 1.62 0.78034 1.62 2.5781 0 1.8076-0.57291 2.5781-1.62 2.5781z" style="fill:#fff;stroke-width:.26458"/>
   </g>
  </g>
  <g id="I3on" transform="matrix(.8843 0 0 .8843 128.16 -41.838)">
   <rect x="27.809" y="172.03" width="12.843" height="12.843" rx="3.9516" ry="3.9516" style="fill:#008000;paint-order:normal;stroke-linecap:round;stroke-width:.52917;stroke:#1a1a1a"/>
   <g transform="translate(-.73899 -6.364e-6)" style="font-feature-settings:normal;font-variant-caps:normal;font-variant-ligatures:normal;font-variant-numeric:normal" aria-label="1">
    <path d="m35.687 181.97v-7.033h-1.0174c-0.25682 0.90876-0.83961 1.3335-1.8965 1.3928v0.93839h0.28646c0.36548 0 1.0866-0.10866 1.3533-0.34573v5.0476z" style="fill:#fff;stroke-width:.26458"/>
   </g>
  </g>
 </g>
 <g id="I4estado" class="estado-logico" transform="translate(-49.865 -102.35)">
  <g id="I4off" transform="matrix(.8843 0 0 .8843 141.31 -55.877)">
   <rect x="27.809" y="187.9" width="12.843" height="12.843" rx="3.9516" ry="3.9516" style="fill:#f00;paint-order:normal;stroke-linecap:round;stroke-width:.52917;stroke:#1a1a1a"/>
   <g style="font-feature-settings:normal;font-variant-caps:normal;font-variant-ligatures:normal;font-variant-numeric:normal" aria-label="0">
    <path d="m34.226 197.94c2.0052 0 2.8942-1.373 2.8942-3.6153s-0.889-3.6153-2.8942-3.6153-2.8843 1.373-2.8843 3.6153c0 2.2422 0.87912 3.6153 2.8843 3.6153zm0-1.0372c-1.047 0-1.6101-0.77047-1.6101-2.5781 0-1.7978 0.56303-2.5781 1.6101-2.5781 1.047 0 1.62 0.78034 1.62 2.5781 0 1.8076-0.57291 2.5781-1.62 2.5781z" style="fill:#fff;stroke-width:.26458"/>
   </g>
  </g>
  <g id="I4on" transform="matrix(.8843 0 0 .8843 141.31 -41.838)">
   <rect x="27.809" y="172.03" width="12.843" height="12.843" rx="3.9516" ry="3.9516" style="fill:#008000;paint-order:normal;stroke-linecap:round;stroke-width:.52917;stroke:#1a1a1a"/>
   <g transform="translate(-.73899 -6.364e-6)" style="font-feature-settings:normal;font-variant-caps:normal;font-variant-ligatures:normal;font-variant-numeric:normal" aria-label="1">
    <path d="m35.687 181.97v-7.033h-1.0174c-0.25682 0.90876-0.83961 1.3335-1.8965 1.3928v0.93839h0.28646c0.36548 0 1.0866-0.10866 1.3533-0.34573v5.0476z" style="fill:#fff;stroke-width:.26458"/>
   </g>
  </g>
 </g>
 <g id="I5estado" class="estado-logico" transform="translate(-50.629 -102.35)">
  <g id="I5off" transform="matrix(.8843 0 0 .8843 156.03 -55.877)">
   <rect x="27.809" y="187.9" width="12.843" height="12.843" rx="3.9516" ry="3.9516" style="fill:#f00;paint-order:normal;stroke-linecap:round;stroke-width:.52917;stroke:#1a1a1a"/>
   <g style="font-feature-settings:normal;font-variant-caps:normal;font-variant-ligatures:normal;font-variant-numeric:normal" aria-label="0">
    <path d="m34.226 197.94c2.0052 0 2.8942-1.373 2.8942-3.6153s-0.889-3.6153-2.8942-3.6153-2.8843 1.373-2.8843 3.6153c0 2.2422 0.87912 3.6153 2.8843 3.6153zm0-1.0372c-1.047 0-1.6101-0.77047-1.6101-2.5781 0-1.7978 0.56303-2.5781 1.6101-2.5781 1.047 0 1.62 0.78034 1.62 2.5781 0 1.8076-0.57291 2.5781-1.62 2.5781z" style="fill:#fff;stroke-width:.26458"/>
   </g>
  </g>
  <g id="I5on" transform="matrix(.8843 0 0 .8843 156.03 -41.838)">
   <rect x="27.809" y="172.03" width="12.843" height="12.843" rx="3.9516" ry="3.9516" style="fill:#008000;paint-order:normal;stroke-linecap:round;stroke-width:.52917;stroke:#1a1a1a"/>
   <g transform="translate(-.73899 -6.364e-6)" style="font-feature-settings:normal;font-variant-caps:normal;font-variant-ligatures:normal;font-variant-numeric:normal" aria-label="1">
    <path d="m35.687 181.97v-7.033h-1.0174c-0.25682 0.90876-0.83961 1.3335-1.8965 1.3928v0.93839h0.28646c0.36548 0 1.0866-0.10866 1.3533-0.34573v5.0476z" style="fill:#fff;stroke-width:.26458"/>
   </g>
  </g>
 </g>
 <g id="I6estado" class="estado-logico" transform="translate(-50.603 -102.35)">
  <g id="I6off" transform="matrix(.8843 0 0 .8843 169.96 -55.877)">
   <rect x="27.809" y="187.9" width="12.843" height="12.843" rx="3.9516" ry="3.9516" style="fill:#f00;paint-order:normal;stroke-linecap:round;stroke-width:.52917;stroke:#1a1a1a"/>
   <g style="font-feature-settings:normal;font-variant-caps:normal;font-variant-ligatures:normal;font-variant-numeric:normal" aria-label="0">
    <path d="m34.226 197.94c2.0052 0 2.8942-1.373 2.8942-3.6153s-0.889-3.6153-2.8942-3.6153-2.8843 1.373-2.8843 3.6153c0 2.2422 0.87912 3.6153 2.8843 3.6153zm0-1.0372c-1.047 0-1.6101-0.77047-1.6101-2.5781 0-1.7978 0.56303-2.5781 1.6101-2.5781 1.047 0 1.62 0.78034 1.62 2.5781 0 1.8076-0.57291 2.5781-1.62 2.5781z" style="fill:#fff;stroke-width:.26458"/>
   </g>
  </g>
  <g id="I6on" transform="matrix(.8843 0 0 .8843 169.96 -41.838)">
   <rect x="27.809" y="172.03" width="12.843" height="12.843" rx="3.9516" ry="3.9516" style="fill:#008000;paint-order:normal;stroke-linecap:round;stroke-width:.52917;stroke:#1a1a1a"/>
   <g transform="translate(-.73899 -6.364e-6)" style="font-feature-settings:normal;font-variant-caps:normal;font-variant-ligatures:normal;font-variant-numeric:normal" aria-label="1">
    <path d="m35.687 181.97v-7.033h-1.0174c-0.25682 0.90876-0.83961 1.3335-1.8965 1.3928v0.93839h0.28646c0.36548 0 1.0866-0.10866 1.3533-0.34573v5.0476z" style="fill:#fff;stroke-width:.26458"/>
   </g>
  </g>
 </g>
 <g id="I7estado" class="estado-logico" transform="translate(-50.268 -102.35)">
  <g id="I7off" transform="matrix(.8843 0 0 .8843 183.58 -55.877)">
   <rect x="27.809" y="187.9" width="12.843" height="12.843" rx="3.9516" ry="3.9516" style="fill:#f00;paint-order:normal;stroke-linecap:round;stroke-width:.52917;stroke:#1a1a1a"/>
   <g style="font-feature-settings:normal;font-variant-caps:normal;font-variant-ligatures:normal;font-variant-numeric:normal" aria-label="0">
    <path d="m34.226 197.94c2.0052 0 2.8942-1.373 2.8942-3.6153s-0.889-3.6153-2.8942-3.6153-2.8843 1.373-2.8843 3.6153c0 2.2422 0.87912 3.6153 2.8843 3.6153zm0-1.0372c-1.047 0-1.6101-0.77047-1.6101-2.5781 0-1.7978 0.56303-2.5781 1.6101-2.5781 1.047 0 1.62 0.78034 1.62 2.5781 0 1.8076-0.57291 2.5781-1.62 2.5781z" style="fill:#fff;stroke-width:.26458"/>
   </g>
  </g>
  <g id="I7on" transform="matrix(.8843 0 0 .8843 183.58 -41.838)">
   <rect x="27.809" y="172.03" width="12.843" height="12.843" rx="3.9516" ry="3.9516" style="fill:#008000;paint-order:normal;stroke-linecap:round;stroke-width:.52917;stroke:#1a1a1a"/>
   <g transform="translate(-.73899 -6.364e-6)" style="font-feature-settings:normal;font-variant-caps:normal;font-variant-ligatures:normal;font-variant-numeric:normal" aria-label="1">
    <path d="m35.687 181.97v-7.033h-1.0174c-0.25682 0.90876-0.83961 1.3335-1.8965 1.3928v0.93839h0.28646c0.36548 0 1.0866-0.10866 1.3533-0.34573v5.0476z" style="fill:#fff;stroke-width:.26458"/>
   </g>
  </g>
 </g>
</svg>
